<?xml version="1.0" encoding="UTF-8" standalone="no"?>
<!DOCTYPE svg PUBLIC "-//W3C//DTD SVG 1.1//EN"
 "http://www.w3.org/Graphics/SVG/1.1/DTD/svg11.dtd">
<!-- Generated by graphviz version 2.40.1 (20161225.0304)
 -->
<!-- Title: %3 Pages: 1 -->
<svg width="1109pt" height="342pt"
 viewBox="0.00 0.00 1109.00 342.00" xmlns="http://www.w3.org/2000/svg" xmlns:xlink="http://www.w3.org/1999/xlink">
<g id="graph0" class="graph" transform="scale(1 1) rotate(0) translate(4 338)">
<title>%3</title>
<polygon fill="#ffffff" stroke="transparent" points="-4,4 -4,-338 1105,-338 1105,4 -4,4"/>
<!-- 139705123510784 -->
<g id="node1" class="node">
<title>139705123510784</title>
<polygon fill="none" stroke="#000000" points="615,-176 615,-222 690,-222 690,-176 615,-176"/>
<text text-anchor="middle" x="652.5" y="-206.8" font-family="Times,serif" font-size="14.00" fill="#000000">data: &#45;0.25</text>
<polyline fill="none" stroke="#000000" points="615,-199 690,-199 "/>
<text text-anchor="middle" x="652.5" y="-183.8" font-family="Times,serif" font-size="14.00" fill="#000000">grad: &#45;0.5</text>
</g>
<!-- 139705123510832+ -->
<g id="node5" class="node">
<title>139705123510832+</title>
<ellipse fill="none" stroke="#000000" cx="753" cy="-237" rx="27" ry="18"/>
<text text-anchor="middle" x="753" y="-233.3" font-family="Times,serif" font-size="14.00" fill="#000000">+</text>
</g>
<!-- 139705123510784&#45;&gt;139705123510832+ -->
<g id="edge9" class="edge">
<title>139705123510784&#45;&gt;139705123510832+</title>
<path fill="none" stroke="#000000" d="M690.2084,-213.2579C699.9642,-216.9467 710.3938,-220.8902 719.8944,-224.4825"/>
<polygon fill="#000000" stroke="#000000" points="718.8,-227.8104 729.3916,-228.0734 721.2758,-221.2629 718.8,-227.8104"/>
</g>
<!-- 139705123510784* -->
<g id="node2" class="node">
<title>139705123510784*</title>
<ellipse fill="none" stroke="#000000" cx="552" cy="-199" rx="27" ry="18"/>
<text text-anchor="middle" x="552" y="-195.3" font-family="Times,serif" font-size="14.00" fill="#000000">*</text>
</g>
<!-- 139705123510784*&#45;&gt;139705123510784 -->
<g id="edge1" class="edge">
<title>139705123510784*&#45;&gt;139705123510784</title>
<path fill="none" stroke="#000000" d="M579.1967,-199C587.0518,-199 595.8664,-199 604.587,-199"/>
<polygon fill="#000000" stroke="#000000" points="604.7178,-202.5001 614.7178,-199 604.7178,-195.5001 604.7178,-202.5001"/>
</g>
<!-- 139705123509776 -->
<g id="node3" class="node">
<title>139705123509776</title>
<polygon fill="none" stroke="#000000" points="7,-88.5 7,-157.5 72,-157.5 72,-88.5 7,-88.5"/>
<text text-anchor="middle" x="39.5" y="-142.3" font-family="Times,serif" font-size="14.00" fill="#000000">w1</text>
<polyline fill="none" stroke="#000000" points="7,-134.5 72,-134.5 "/>
<text text-anchor="middle" x="39.5" y="-119.3" font-family="Times,serif" font-size="14.00" fill="#000000">data: 0.5</text>
<polyline fill="none" stroke="#000000" points="7,-111.5 72,-111.5 "/>
<text text-anchor="middle" x="39.5" y="-96.3" font-family="Times,serif" font-size="14.00" fill="#000000">grad: 1.0</text>
</g>
<!-- 139705123510640* -->
<g id="node13" class="node">
<title>139705123510640*</title>
<ellipse fill="none" stroke="#000000" cx="142" cy="-123" rx="27" ry="18"/>
<text text-anchor="middle" x="142" y="-119.3" font-family="Times,serif" font-size="14.00" fill="#000000">*</text>
</g>
<!-- 139705123509776&#45;&gt;139705123510640* -->
<g id="edge7" class="edge">
<title>139705123509776&#45;&gt;139705123510640*</title>
<path fill="none" stroke="#000000" d="M72.2135,-123C82.4957,-123 93.9285,-123 104.515,-123"/>
<polygon fill="#000000" stroke="#000000" points="104.7454,-126.5001 114.7453,-123 104.7453,-119.5001 104.7454,-126.5001"/>
</g>
<!-- 139705123510832 -->
<g id="node4" class="node">
<title>139705123510832</title>
<polygon fill="none" stroke="#000000" points="816,-214 816,-260 891,-260 891,-214 816,-214"/>
<text text-anchor="middle" x="853.5" y="-244.8" font-family="Times,serif" font-size="14.00" fill="#000000">data: &#45;0.25</text>
<polyline fill="none" stroke="#000000" points="816,-237 891,-237 "/>
<text text-anchor="middle" x="853.5" y="-221.8" font-family="Times,serif" font-size="14.00" fill="#000000">grad: &#45;0.5</text>
</g>
<!-- 139705123510160**2 -->
<g id="node15" class="node">
<title>139705123510160**2</title>
<ellipse fill="none" stroke="#000000" cx="954" cy="-237" rx="27" ry="18"/>
<text text-anchor="middle" x="954" y="-233.3" font-family="Times,serif" font-size="14.00" fill="#000000">**2</text>
</g>
<!-- 139705123510832&#45;&gt;139705123510160**2 -->
<g id="edge8" class="edge">
<title>139705123510832&#45;&gt;139705123510160**2</title>
<path fill="none" stroke="#000000" d="M891.2084,-237C899.5109,-237 908.3013,-237 916.5918,-237"/>
<polygon fill="#000000" stroke="#000000" points="916.7515,-240.5001 926.7515,-237 916.7515,-233.5001 916.7515,-240.5001"/>
</g>
<!-- 139705123510832+&#45;&gt;139705123510832 -->
<g id="edge2" class="edge">
<title>139705123510832+&#45;&gt;139705123510832</title>
<path fill="none" stroke="#000000" d="M780.1967,-237C788.0518,-237 796.8664,-237 805.587,-237"/>
<polygon fill="#000000" stroke="#000000" points="805.7178,-240.5001 815.7178,-237 805.7178,-233.5001 805.7178,-240.5001"/>
</g>
<!-- 139705123509824 -->
<g id="node6" class="node">
<title>139705123509824</title>
<polygon fill="none" stroke="#000000" points="0,-264.5 0,-333.5 79,-333.5 79,-264.5 0,-264.5"/>
<text text-anchor="middle" x="39.5" y="-318.3" font-family="Times,serif" font-size="14.00" fill="#000000">x2</text>
<polyline fill="none" stroke="#000000" points="0,-310.5 79,-310.5 "/>
<text text-anchor="middle" x="39.5" y="-295.3" font-family="Times,serif" font-size="14.00" fill="#000000">data: &#45;1.0</text>
<polyline fill="none" stroke="#000000" points="0,-287.5 79,-287.5 "/>
<text text-anchor="middle" x="39.5" y="-272.3" font-family="Times,serif" font-size="14.00" fill="#000000">grad: 0.375</text>
</g>
<!-- 139705123509392* -->
<g id="node8" class="node">
<title>139705123509392*</title>
<ellipse fill="none" stroke="#000000" cx="142" cy="-211" rx="27" ry="18"/>
<text text-anchor="middle" x="142" y="-207.3" font-family="Times,serif" font-size="14.00" fill="#000000">*</text>
</g>
<!-- 139705123509824&#45;&gt;139705123509392* -->
<g id="edge17" class="edge">
<title>139705123509824&#45;&gt;139705123509392*</title>
<path fill="none" stroke="#000000" d="M79.1292,-264.9769C92.0035,-253.9239 105.9105,-241.9841 117.3635,-232.1513"/>
<polygon fill="#000000" stroke="#000000" points="119.912,-234.5764 125.2194,-225.4067 115.3522,-229.2652 119.912,-234.5764"/>
</g>
<!-- 139705123509392 -->
<g id="node7" class="node">
<title>139705123509392</title>
<polygon fill="none" stroke="#000000" points="205,-182 205,-228 280,-228 280,-182 205,-182"/>
<text text-anchor="middle" x="242.5" y="-212.8" font-family="Times,serif" font-size="14.00" fill="#000000">data: &#45;0.75</text>
<polyline fill="none" stroke="#000000" points="205,-205 280,-205 "/>
<text text-anchor="middle" x="242.5" y="-189.8" font-family="Times,serif" font-size="14.00" fill="#000000">grad: 0.5</text>
</g>
<!-- 139705123509728+ -->
<g id="node18" class="node">
<title>139705123509728+</title>
<ellipse fill="none" stroke="#000000" cx="343" cy="-161" rx="27" ry="18"/>
<text text-anchor="middle" x="343" y="-157.3" font-family="Times,serif" font-size="14.00" fill="#000000">+</text>
</g>
<!-- 139705123509392&#45;&gt;139705123509728+ -->
<g id="edge14" class="edge">
<title>139705123509392&#45;&gt;139705123509728+</title>
<path fill="none" stroke="#000000" d="M280.2084,-188.4908C290.3176,-184.0649 301.1502,-179.3223 310.923,-175.0437"/>
<polygon fill="#000000" stroke="#000000" points="312.5196,-178.1655 320.2764,-170.9486 309.7122,-171.7531 312.5196,-178.1655"/>
</g>
<!-- 139705123509392*&#45;&gt;139705123509392 -->
<g id="edge3" class="edge">
<title>139705123509392*&#45;&gt;139705123509392</title>
<path fill="none" stroke="#000000" d="M168.9322,-209.3921C176.8723,-208.9181 185.8106,-208.3844 194.6496,-207.8567"/>
<polygon fill="#000000" stroke="#000000" points="195.1409,-211.3337 204.9145,-207.2439 194.7236,-204.3462 195.1409,-211.3337"/>
</g>
<!-- 139705123509920 -->
<g id="node9" class="node">
<title>139705123509920</title>
<polygon fill="none" stroke="#000000" points="406,-214 406,-260 489,-260 489,-214 406,-214"/>
<text text-anchor="middle" x="447.5" y="-244.8" font-family="Times,serif" font-size="14.00" fill="#000000">data: &#45;1.0</text>
<polyline fill="none" stroke="#000000" points="406,-237 489,-237 "/>
<text text-anchor="middle" x="447.5" y="-221.8" font-family="Times,serif" font-size="14.00" fill="#000000">grad: &#45;0.125</text>
</g>
<!-- 139705123509920&#45;&gt;139705123510784* -->
<g id="edge11" class="edge">
<title>139705123509920&#45;&gt;139705123510784*</title>
<path fill="none" stroke="#000000" d="M489.1014,-221.8722C498.9864,-218.2777 509.4023,-214.4901 518.8517,-211.0539"/>
<polygon fill="#000000" stroke="#000000" points="520.0845,-214.3299 528.2863,-207.6232 517.6922,-207.7514 520.0845,-214.3299"/>
</g>
<!-- 139705123511504 -->
<g id="node10" class="node">
<title>139705123511504</title>
<polygon fill="none" stroke="#000000" points="4,-176.5 4,-245.5 75,-245.5 75,-176.5 4,-176.5"/>
<text text-anchor="middle" x="39.5" y="-230.3" font-family="Times,serif" font-size="14.00" fill="#000000">w2</text>
<polyline fill="none" stroke="#000000" points="4,-222.5 75,-222.5 "/>
<text text-anchor="middle" x="39.5" y="-207.3" font-family="Times,serif" font-size="14.00" fill="#000000">data: 0.75</text>
<polyline fill="none" stroke="#000000" points="4,-199.5 75,-199.5 "/>
<text text-anchor="middle" x="39.5" y="-184.3" font-family="Times,serif" font-size="14.00" fill="#000000">grad: &#45;0.5</text>
</g>
<!-- 139705123511504&#45;&gt;139705123509392* -->
<g id="edge15" class="edge">
<title>139705123511504&#45;&gt;139705123509392*</title>
<path fill="none" stroke="#000000" d="M75.0619,-211C84.6584,-211 95.0671,-211 104.753,-211"/>
<polygon fill="#000000" stroke="#000000" points="104.907,-214.5001 114.9069,-211 104.9069,-207.5001 104.907,-214.5001"/>
</g>
<!-- 139706082137424 -->
<g id="node11" class="node">
<title>139706082137424</title>
<polygon fill="none" stroke="#000000" points="3.5,-.5 3.5,-69.5 75.5,-69.5 75.5,-.5 3.5,-.5"/>
<text text-anchor="middle" x="39.5" y="-54.3" font-family="Times,serif" font-size="14.00" fill="#000000">x1</text>
<polyline fill="none" stroke="#000000" points="3.5,-46.5 75.5,-46.5 "/>
<text text-anchor="middle" x="39.5" y="-31.3" font-family="Times,serif" font-size="14.00" fill="#000000">data: 2.0</text>
<polyline fill="none" stroke="#000000" points="3.5,-23.5 75.5,-23.5 "/>
<text text-anchor="middle" x="39.5" y="-8.3" font-family="Times,serif" font-size="14.00" fill="#000000">grad: 0.25</text>
</g>
<!-- 139706082137424&#45;&gt;139705123510640* -->
<g id="edge13" class="edge">
<title>139706082137424&#45;&gt;139705123510640*</title>
<path fill="none" stroke="#000000" d="M75.6377,-66.0255C89.5382,-77.9596 105.0677,-91.2922 117.6073,-102.0579"/>
<polygon fill="#000000" stroke="#000000" points="115.5014,-104.8629 125.3686,-108.7214 120.0612,-99.5518 115.5014,-104.8629"/>
</g>
<!-- 139705123510640 -->
<g id="node12" class="node">
<title>139705123510640</title>
<polygon fill="none" stroke="#000000" points="210,-106 210,-152 275,-152 275,-106 210,-106"/>
<text text-anchor="middle" x="242.5" y="-136.8" font-family="Times,serif" font-size="14.00" fill="#000000">data: 1.0</text>
<polyline fill="none" stroke="#000000" points="210,-129 275,-129 "/>
<text text-anchor="middle" x="242.5" y="-113.8" font-family="Times,serif" font-size="14.00" fill="#000000">grad: 0.5</text>
</g>
<!-- 139705123510640&#45;&gt;139705123509728+ -->
<g id="edge12" class="edge">
<title>139705123510640&#45;&gt;139705123509728+</title>
<path fill="none" stroke="#000000" d="M275.1295,-139.3895C285.9244,-142.8267 297.9616,-146.6594 308.8663,-150.1315"/>
<polygon fill="#000000" stroke="#000000" points="307.9037,-153.4981 318.4943,-153.1972 310.0276,-146.8281 307.9037,-153.4981"/>
</g>
<!-- 139705123510640*&#45;&gt;139705123510640 -->
<g id="edge4" class="edge">
<title>139705123510640*&#45;&gt;139705123510640</title>
<path fill="none" stroke="#000000" d="M168.9322,-124.6079C178.3514,-125.1702 189.1751,-125.8164 199.5715,-126.4371"/>
<polygon fill="#000000" stroke="#000000" points="199.5668,-129.943 209.7577,-127.0452 199.9841,-122.9554 199.5668,-129.943"/>
</g>
<!-- 139705123510160 -->
<g id="node14" class="node">
<title>139705123510160</title>
<polygon fill="none" stroke="#000000" points="1017,-202.5 1017,-271.5 1101,-271.5 1101,-202.5 1017,-202.5"/>
<text text-anchor="middle" x="1059" y="-256.3" font-family="Times,serif" font-size="14.00" fill="#000000">loss</text>
<polyline fill="none" stroke="#000000" points="1017,-248.5 1101,-248.5 "/>
<text text-anchor="middle" x="1059" y="-233.3" font-family="Times,serif" font-size="14.00" fill="#000000">data: 0.0625</text>
<polyline fill="none" stroke="#000000" points="1017,-225.5 1101,-225.5 "/>
<text text-anchor="middle" x="1059" y="-210.3" font-family="Times,serif" font-size="14.00" fill="#000000">grad: 1.0</text>
</g>
<!-- 139705123510160**2&#45;&gt;139705123510160 -->
<g id="edge5" class="edge">
<title>139705123510160**2&#45;&gt;139705123510160</title>
<path fill="none" stroke="#000000" d="M981.0401,-237C988.9868,-237 997.9603,-237 1006.9177,-237"/>
<polygon fill="#000000" stroke="#000000" points="1006.9683,-240.5001 1016.9683,-237 1006.9683,-233.5001 1006.9683,-240.5001"/>
</g>
<!-- 139705123510208 -->
<g id="node16" class="node">
<title>139705123510208</title>
<polygon fill="none" stroke="#000000" points="617.5,-241.5 617.5,-310.5 687.5,-310.5 687.5,-241.5 617.5,-241.5"/>
<text text-anchor="middle" x="652.5" y="-295.3" font-family="Times,serif" font-size="14.00" fill="#000000">y</text>
<polyline fill="none" stroke="#000000" points="617.5,-287.5 687.5,-287.5 "/>
<text text-anchor="middle" x="652.5" y="-272.3" font-family="Times,serif" font-size="14.00" fill="#000000">data: 0.0</text>
<polyline fill="none" stroke="#000000" points="617.5,-264.5 687.5,-264.5 "/>
<text text-anchor="middle" x="652.5" y="-249.3" font-family="Times,serif" font-size="14.00" fill="#000000">grad: &#45;0.5</text>
</g>
<!-- 139705123510208&#45;&gt;139705123510832+ -->
<g id="edge16" class="edge">
<title>139705123510208&#45;&gt;139705123510832+</title>
<path fill="none" stroke="#000000" d="M687.65,-262.3597C698.1165,-258.2981 709.5464,-253.8626 719.8789,-249.853"/>
<polygon fill="#000000" stroke="#000000" points="721.3252,-253.0461 729.3817,-246.1653 718.7928,-246.5202 721.3252,-253.0461"/>
</g>
<!-- 139705123509728 -->
<g id="node17" class="node">
<title>139705123509728</title>
<polygon fill="none" stroke="#000000" points="412,-126.5 412,-195.5 483,-195.5 483,-126.5 412,-126.5"/>
<text text-anchor="middle" x="447.5" y="-180.3" font-family="Times,serif" font-size="14.00" fill="#000000">y_hat</text>
<polyline fill="none" stroke="#000000" points="412,-172.5 483,-172.5 "/>
<text text-anchor="middle" x="447.5" y="-157.3" font-family="Times,serif" font-size="14.00" fill="#000000">data: 0.25</text>
<polyline fill="none" stroke="#000000" points="412,-149.5 483,-149.5 "/>
<text text-anchor="middle" x="447.5" y="-134.3" font-family="Times,serif" font-size="14.00" fill="#000000">grad: 0.5</text>
</g>
<!-- 139705123509728&#45;&gt;139705123510784* -->
<g id="edge10" class="edge">
<title>139705123509728&#45;&gt;139705123510784*</title>
<path fill="none" stroke="#000000" d="M483.1707,-173.9712C494.6034,-178.1285 507.2175,-182.7155 518.4902,-186.8146"/>
<polygon fill="#000000" stroke="#000000" points="517.3936,-190.14 527.9877,-190.2682 519.7859,-183.5615 517.3936,-190.14"/>
</g>
<!-- 139705123509728+&#45;&gt;139705123509728 -->
<g id="edge6" class="edge">
<title>139705123509728+&#45;&gt;139705123509728</title>
<path fill="none" stroke="#000000" d="M370.1833,-161C379.8073,-161 390.9181,-161 401.6618,-161"/>
<polygon fill="#000000" stroke="#000000" points="401.7894,-164.5001 411.7894,-161 401.7893,-157.5001 401.7894,-164.5001"/>
</g>
</g>
</svg>
