<?xml version="1.0" encoding="UTF-8" standalone="no"?>
<!DOCTYPE svg PUBLIC "-//W3C//DTD SVG 1.1//EN"
 "http://www.w3.org/Graphics/SVG/1.1/DTD/svg11.dtd">
<!-- Generated by graphviz version 2.40.1 (20161225.0304)
 -->
<!-- Title: %3 Pages: 1 -->
<svg width="1821pt" height="210pt"
 viewBox="0.00 0.00 1821.00 210.00" xmlns="http://www.w3.org/2000/svg" xmlns:xlink="http://www.w3.org/1999/xlink">
<g id="graph0" class="graph" transform="scale(1 1) rotate(0) translate(4 206)">
<title>%3</title>
<polygon fill="#ffffff" stroke="transparent" points="-4,4 -4,-206 1817,-206 1817,4 -4,4"/>
<!-- 140043788012560 -->
<g id="node1" class="node">
<title>140043788012560</title>
<polygon fill="none" stroke="#000000" points="653,-137.5 653,-173.5 832,-173.5 832,-137.5 653,-137.5"/>
<text text-anchor="middle" x="697.5" y="-151.8" font-family="Times,serif" font-size="14.00" fill="#000000">data: &#45;1.0000</text>
<polyline fill="none" stroke="#000000" points="742,-137.5 742,-173.5 "/>
<text text-anchor="middle" x="787" y="-151.8" font-family="Times,serif" font-size="14.00" fill="#000000">grad: &#45;0.1250</text>
</g>
<!-- 140043788012272* -->
<g id="node10" class="node">
<title>140043788012272*</title>
<ellipse fill="none" stroke="#000000" cx="914" cy="-127.5" rx="27" ry="18"/>
<text text-anchor="middle" x="914" y="-123.8" font-family="Times,serif" font-size="14.00" fill="#000000">*</text>
</g>
<!-- 140043788012560&#45;&gt;140043788012272* -->
<g id="edge14" class="edge">
<title>140043788012560&#45;&gt;140043788012272*</title>
<path fill="none" stroke="#000000" d="M832.0172,-140.8849C848.0386,-138.2692 863.8842,-135.6822 877.3113,-133.49"/>
<polygon fill="#000000" stroke="#000000" points="878.2128,-136.8892 887.5182,-131.8236 877.0849,-129.9807 878.2128,-136.8892"/>
</g>
<!-- 140044861653056 -->
<g id="node2" class="node">
<title>140044861653056</title>
<polygon fill="none" stroke="#000000" points="2,-165.5 2,-201.5 205,-201.5 205,-165.5 2,-165.5"/>
<text text-anchor="middle" x="18.5" y="-179.8" font-family="Times,serif" font-size="14.00" fill="#000000">w1</text>
<polyline fill="none" stroke="#000000" points="35,-165.5 35,-201.5 "/>
<text text-anchor="middle" x="77" y="-179.8" font-family="Times,serif" font-size="14.00" fill="#000000">data: 0.5000</text>
<polyline fill="none" stroke="#000000" points="119,-165.5 119,-201.5 "/>
<text text-anchor="middle" x="162" y="-179.8" font-family="Times,serif" font-size="14.00" fill="#000000">grad: 1.0000</text>
</g>
<!-- 140044836856976* -->
<g id="node7" class="node">
<title>140044836856976*</title>
<ellipse fill="none" stroke="#000000" cx="270" cy="-128.5" rx="27" ry="18"/>
<text text-anchor="middle" x="270" y="-124.8" font-family="Times,serif" font-size="14.00" fill="#000000">*</text>
</g>
<!-- 140044861653056&#45;&gt;140044836856976* -->
<g id="edge13" class="edge">
<title>140044861653056&#45;&gt;140044836856976*</title>
<path fill="none" stroke="#000000" d="M178.5608,-165.467C188.2038,-162.6985 197.8858,-159.6903 207,-156.5 217.6157,-152.7842 228.9265,-148.0236 238.9918,-143.486"/>
<polygon fill="#000000" stroke="#000000" points="240.5791,-146.6083 248.197,-139.2451 237.65,-140.2506 240.5791,-146.6083"/>
</g>
<!-- 140043787841648 -->
<g id="node3" class="node">
<title>140043787841648</title>
<polygon fill="none" stroke="#000000" points="1300,-81.5 1300,-117.5 1479,-117.5 1479,-81.5 1300,-81.5"/>
<text text-anchor="middle" x="1344.5" y="-95.8" font-family="Times,serif" font-size="14.00" fill="#000000">data: &#45;0.2500</text>
<polyline fill="none" stroke="#000000" points="1389,-81.5 1389,-117.5 "/>
<text text-anchor="middle" x="1434" y="-95.8" font-family="Times,serif" font-size="14.00" fill="#000000">grad: &#45;0.5000</text>
</g>
<!-- 140043787841840**2 -->
<g id="node14" class="node">
<title>140043787841840**2</title>
<ellipse fill="none" stroke="#000000" cx="1542" cy="-99.5" rx="27" ry="18"/>
<text text-anchor="middle" x="1542" y="-95.8" font-family="Times,serif" font-size="14.00" fill="#000000">**2</text>
</g>
<!-- 140043787841648&#45;&gt;140043787841840**2 -->
<g id="edge11" class="edge">
<title>140043787841648&#45;&gt;140043787841840**2</title>
<path fill="none" stroke="#000000" d="M1479.092,-99.5C1488.0066,-99.5 1496.6702,-99.5 1504.5746,-99.5"/>
<polygon fill="#000000" stroke="#000000" points="1504.835,-103.0001 1514.835,-99.5 1504.8349,-96.0001 1504.835,-103.0001"/>
</g>
<!-- 140043787841648+ -->
<g id="node4" class="node">
<title>140043787841648+</title>
<ellipse fill="none" stroke="#000000" cx="1237" cy="-99.5" rx="27" ry="18"/>
<text text-anchor="middle" x="1237" y="-95.8" font-family="Times,serif" font-size="14.00" fill="#000000">+</text>
</g>
<!-- 140043787841648+&#45;&gt;140043787841648 -->
<g id="edge1" class="edge">
<title>140043787841648+&#45;&gt;140043787841648</title>
<path fill="none" stroke="#000000" d="M1264.2639,-99.5C1271.8138,-99.5 1280.4749,-99.5 1289.6409,-99.5"/>
<polygon fill="#000000" stroke="#000000" points="1289.7566,-103.0001 1299.7566,-99.5 1289.7566,-96.0001 1289.7566,-103.0001"/>
</g>
<!-- 140044861653632 -->
<g id="node5" class="node">
<title>140044861653632</title>
<polygon fill="none" stroke="#000000" points="0,-55.5 0,-91.5 207,-91.5 207,-55.5 0,-55.5"/>
<text text-anchor="middle" x="16.5" y="-69.8" font-family="Times,serif" font-size="14.00" fill="#000000">w2</text>
<polyline fill="none" stroke="#000000" points="33,-55.5 33,-91.5 "/>
<text text-anchor="middle" x="75" y="-69.8" font-family="Times,serif" font-size="14.00" fill="#000000">data: 0.7500</text>
<polyline fill="none" stroke="#000000" points="117,-55.5 117,-91.5 "/>
<text text-anchor="middle" x="162" y="-69.8" font-family="Times,serif" font-size="14.00" fill="#000000">grad: &#45;0.5000</text>
</g>
<!-- 140043787796336* -->
<g id="node16" class="node">
<title>140043787796336*</title>
<ellipse fill="none" stroke="#000000" cx="270" cy="-73.5" rx="27" ry="18"/>
<text text-anchor="middle" x="270" y="-69.8" font-family="Times,serif" font-size="14.00" fill="#000000">*</text>
</g>
<!-- 140044861653632&#45;&gt;140043787796336* -->
<g id="edge8" class="edge">
<title>140044861653632&#45;&gt;140043787796336*</title>
<path fill="none" stroke="#000000" d="M207.0535,-73.5C216.0556,-73.5 224.7205,-73.5 232.591,-73.5"/>
<polygon fill="#000000" stroke="#000000" points="232.7883,-77.0001 242.7883,-73.5 232.7883,-70.0001 232.7883,-77.0001"/>
</g>
<!-- 140044836856976 -->
<g id="node6" class="node">
<title>140044836856976</title>
<polygon fill="none" stroke="#000000" points="335.5,-110.5 335.5,-146.5 505.5,-146.5 505.5,-110.5 335.5,-110.5"/>
<text text-anchor="middle" x="377.5" y="-124.8" font-family="Times,serif" font-size="14.00" fill="#000000">data: 1.0000</text>
<polyline fill="none" stroke="#000000" points="419.5,-110.5 419.5,-146.5 "/>
<text text-anchor="middle" x="462.5" y="-124.8" font-family="Times,serif" font-size="14.00" fill="#000000">grad: 0.5000</text>
</g>
<!-- 140043788011984+ -->
<g id="node18" class="node">
<title>140043788011984+</title>
<ellipse fill="none" stroke="#000000" cx="571" cy="-100.5" rx="27" ry="18"/>
<text text-anchor="middle" x="571" y="-96.8" font-family="Times,serif" font-size="14.00" fill="#000000">+</text>
</g>
<!-- 140044836856976&#45;&gt;140043788011984+ -->
<g id="edge12" class="edge">
<title>140044836856976&#45;&gt;140043788011984+</title>
<path fill="none" stroke="#000000" d="M505.8638,-112.6184C516.0684,-110.7198 526.0202,-108.8683 534.9502,-107.2069"/>
<polygon fill="#000000" stroke="#000000" points="535.7267,-110.6226 544.9178,-105.3525 534.4463,-103.7407 535.7267,-110.6226"/>
</g>
<!-- 140044836856976*&#45;&gt;140044836856976 -->
<g id="edge2" class="edge">
<title>140044836856976*&#45;&gt;140044836856976</title>
<path fill="none" stroke="#000000" d="M297.2544,-128.5C305.5133,-128.5 315.0961,-128.5 325.199,-128.5"/>
<polygon fill="#000000" stroke="#000000" points="325.4455,-132.0001 335.4455,-128.5 325.4454,-125.0001 325.4455,-132.0001"/>
</g>
<!-- 140044836857024 -->
<g id="node8" class="node">
<title>140044836857024</title>
<polygon fill="none" stroke="#000000" points="977,-54.5 977,-90.5 1174,-90.5 1174,-54.5 977,-54.5"/>
<text text-anchor="middle" x="988.5" y="-68.8" font-family="Times,serif" font-size="14.00" fill="#000000">y</text>
<polyline fill="none" stroke="#000000" points="1000,-54.5 1000,-90.5 "/>
<text text-anchor="middle" x="1042" y="-68.8" font-family="Times,serif" font-size="14.00" fill="#000000">data: 0.0000</text>
<polyline fill="none" stroke="#000000" points="1084,-54.5 1084,-90.5 "/>
<text text-anchor="middle" x="1129" y="-68.8" font-family="Times,serif" font-size="14.00" fill="#000000">grad: &#45;0.5000</text>
</g>
<!-- 140044836857024&#45;&gt;140043787841648+ -->
<g id="edge16" class="edge">
<title>140044836857024&#45;&gt;140043787841648+</title>
<path fill="none" stroke="#000000" d="M1174.0974,-88.9838C1183.4127,-90.5411 1192.3943,-92.0427 1200.5123,-93.3999"/>
<polygon fill="#000000" stroke="#000000" points="1200.2018,-96.8965 1210.6421,-95.0934 1201.3562,-89.9923 1200.2018,-96.8965"/>
</g>
<!-- 140043788012272 -->
<g id="node9" class="node">
<title>140043788012272</title>
<polygon fill="none" stroke="#000000" points="986,-109.5 986,-145.5 1165,-145.5 1165,-109.5 986,-109.5"/>
<text text-anchor="middle" x="1030.5" y="-123.8" font-family="Times,serif" font-size="14.00" fill="#000000">data: &#45;0.2500</text>
<polyline fill="none" stroke="#000000" points="1075,-109.5 1075,-145.5 "/>
<text text-anchor="middle" x="1120" y="-123.8" font-family="Times,serif" font-size="14.00" fill="#000000">grad: &#45;0.5000</text>
</g>
<!-- 140043788012272&#45;&gt;140043787841648+ -->
<g id="edge10" class="edge">
<title>140043788012272&#45;&gt;140043787841648+</title>
<path fill="none" stroke="#000000" d="M1165.2232,-111.9443C1177.7472,-109.7729 1189.9796,-107.6521 1200.6953,-105.7943"/>
<polygon fill="#000000" stroke="#000000" points="1201.605,-109.1889 1210.8601,-104.032 1200.4092,-102.2918 1201.605,-109.1889"/>
</g>
<!-- 140043788012272*&#45;&gt;140043788012272 -->
<g id="edge3" class="edge">
<title>140043788012272*&#45;&gt;140043788012272</title>
<path fill="none" stroke="#000000" d="M941.0315,-127.5C951.0219,-127.5 963.02,-127.5 975.6815,-127.5"/>
<polygon fill="#000000" stroke="#000000" points="975.9523,-131.0001 985.9523,-127.5 975.9523,-124.0001 975.9523,-131.0001"/>
</g>
<!-- 140044861549824 -->
<g id="node11" class="node">
<title>140044861549824</title>
<polygon fill="none" stroke="#000000" points="1,-.5 1,-36.5 206,-36.5 206,-.5 1,-.5"/>
<text text-anchor="middle" x="16" y="-14.8" font-family="Times,serif" font-size="14.00" fill="#000000">x2</text>
<polyline fill="none" stroke="#000000" points="31,-.5 31,-36.5 "/>
<text text-anchor="middle" x="75.5" y="-14.8" font-family="Times,serif" font-size="14.00" fill="#000000">data: &#45;1.0000</text>
<polyline fill="none" stroke="#000000" points="120,-.5 120,-36.5 "/>
<text text-anchor="middle" x="163" y="-14.8" font-family="Times,serif" font-size="14.00" fill="#000000">grad: 0.3750</text>
</g>
<!-- 140044861549824&#45;&gt;140043787796336* -->
<g id="edge15" class="edge">
<title>140044861549824&#45;&gt;140043787796336*</title>
<path fill="none" stroke="#000000" d="M175.4457,-36.5579C186.1001,-39.6373 196.89,-42.9856 207,-46.5 217.4768,-50.1419 228.6764,-54.7112 238.6835,-59.0497"/>
<polygon fill="#000000" stroke="#000000" points="237.2885,-62.2598 247.8499,-63.1008 240.1182,-55.8572 237.2885,-62.2598"/>
</g>
<!-- 140044837001488 -->
<g id="node12" class="node">
<title>140044837001488</title>
<polygon fill="none" stroke="#000000" points="3.5,-110.5 3.5,-146.5 203.5,-146.5 203.5,-110.5 3.5,-110.5"/>
<text text-anchor="middle" x="18.5" y="-124.8" font-family="Times,serif" font-size="14.00" fill="#000000">x1</text>
<polyline fill="none" stroke="#000000" points="33.5,-110.5 33.5,-146.5 "/>
<text text-anchor="middle" x="75.5" y="-124.8" font-family="Times,serif" font-size="14.00" fill="#000000">data: 2.0000</text>
<polyline fill="none" stroke="#000000" points="117.5,-110.5 117.5,-146.5 "/>
<text text-anchor="middle" x="160.5" y="-124.8" font-family="Times,serif" font-size="14.00" fill="#000000">grad: 0.2500</text>
</g>
<!-- 140044837001488&#45;&gt;140044836856976* -->
<g id="edge7" class="edge">
<title>140044837001488&#45;&gt;140044836856976*</title>
<path fill="none" stroke="#000000" d="M203.7164,-128.5C213.9008,-128.5 223.7315,-128.5 232.5631,-128.5"/>
<polygon fill="#000000" stroke="#000000" points="232.7971,-132.0001 242.797,-128.5 232.797,-125.0001 232.7971,-132.0001"/>
</g>
<!-- 140043787841840 -->
<g id="node13" class="node">
<title>140043787841840</title>
<polygon fill="none" stroke="#000000" points="1605,-81.5 1605,-117.5 1813,-117.5 1813,-81.5 1605,-81.5"/>
<text text-anchor="middle" x="1624" y="-95.8" font-family="Times,serif" font-size="14.00" fill="#000000">loss</text>
<polyline fill="none" stroke="#000000" points="1643,-81.5 1643,-117.5 "/>
<text text-anchor="middle" x="1685" y="-95.8" font-family="Times,serif" font-size="14.00" fill="#000000">data: 0.0625</text>
<polyline fill="none" stroke="#000000" points="1727,-81.5 1727,-117.5 "/>
<text text-anchor="middle" x="1770" y="-95.8" font-family="Times,serif" font-size="14.00" fill="#000000">grad: 1.0000</text>
</g>
<!-- 140043787841840**2&#45;&gt;140043787841840 -->
<g id="edge4" class="edge">
<title>140043787841840**2&#45;&gt;140043787841840</title>
<path fill="none" stroke="#000000" d="M1569.2031,-99.5C1576.7372,-99.5 1585.4158,-99.5 1594.6835,-99.5"/>
<polygon fill="#000000" stroke="#000000" points="1594.945,-103.0001 1604.945,-99.5 1594.9449,-96.0001 1594.945,-103.0001"/>
</g>
<!-- 140043787796336 -->
<g id="node15" class="node">
<title>140043787796336</title>
<polygon fill="none" stroke="#000000" points="333,-55.5 333,-91.5 508,-91.5 508,-55.5 333,-55.5"/>
<text text-anchor="middle" x="377.5" y="-69.8" font-family="Times,serif" font-size="14.00" fill="#000000">data: &#45;0.7500</text>
<polyline fill="none" stroke="#000000" points="422,-55.5 422,-91.5 "/>
<text text-anchor="middle" x="465" y="-69.8" font-family="Times,serif" font-size="14.00" fill="#000000">grad: 0.5000</text>
</g>
<!-- 140043787796336&#45;&gt;140043788011984+ -->
<g id="edge9" class="edge">
<title>140043787796336&#45;&gt;140043788011984+</title>
<path fill="none" stroke="#000000" d="M508.0465,-89.206C517.4129,-90.8864 526.5181,-92.5199 534.7603,-93.9985"/>
<polygon fill="#000000" stroke="#000000" points="534.2325,-97.4596 544.6935,-95.7806 535.4687,-90.5696 534.2325,-97.4596"/>
</g>
<!-- 140043787796336*&#45;&gt;140043787796336 -->
<g id="edge5" class="edge">
<title>140043787796336*&#45;&gt;140043787796336</title>
<path fill="none" stroke="#000000" d="M297.2544,-73.5C304.8436,-73.5 313.5507,-73.5 322.7519,-73.5"/>
<polygon fill="#000000" stroke="#000000" points="322.9008,-77.0001 332.9008,-73.5 322.9007,-70.0001 322.9008,-77.0001"/>
</g>
<!-- 140043788011984 -->
<g id="node17" class="node">
<title>140043788011984</title>
<polygon fill="none" stroke="#000000" points="634,-82.5 634,-118.5 851,-118.5 851,-82.5 634,-82.5"/>
<text text-anchor="middle" x="657.5" y="-96.8" font-family="Times,serif" font-size="14.00" fill="#000000">y_hat</text>
<polyline fill="none" stroke="#000000" points="681,-82.5 681,-118.5 "/>
<text text-anchor="middle" x="723" y="-96.8" font-family="Times,serif" font-size="14.00" fill="#000000">data: 0.2500</text>
<polyline fill="none" stroke="#000000" points="765,-82.5 765,-118.5 "/>
<text text-anchor="middle" x="808" y="-96.8" font-family="Times,serif" font-size="14.00" fill="#000000">grad: 0.5000</text>
</g>
<!-- 140043788011984&#45;&gt;140043788012272* -->
<g id="edge17" class="edge">
<title>140043788011984&#45;&gt;140043788012272*</title>
<path fill="none" stroke="#000000" d="M851.1136,-117.5995C860.4502,-119.0694 869.3967,-120.4779 877.4646,-121.7481"/>
<polygon fill="#000000" stroke="#000000" points="877.1006,-125.2338 887.5233,-123.3317 878.1893,-118.319 877.1006,-125.2338"/>
</g>
<!-- 140043788011984+&#45;&gt;140043788011984 -->
<g id="edge6" class="edge">
<title>140043788011984+&#45;&gt;140043788011984</title>
<path fill="none" stroke="#000000" d="M598.1747,-100.5C605.6657,-100.5 614.2992,-100.5 623.5414,-100.5"/>
<polygon fill="#000000" stroke="#000000" points="623.7839,-104.0001 633.7839,-100.5 623.7839,-97.0001 623.7839,-104.0001"/>
</g>
</g>
</svg>
