<?xml version="1.0" encoding="UTF-8" standalone="no"?>
<!DOCTYPE svg PUBLIC "-//W3C//DTD SVG 1.1//EN"
 "http://www.w3.org/Graphics/SVG/1.1/DTD/svg11.dtd">
<!-- Generated by graphviz version 2.40.1 (20161225.0304)
 -->
<!-- Title: %3 Pages: 1 -->
<svg width="1089pt" height="342pt"
 viewBox="0.00 0.00 1089.00 342.00" xmlns="http://www.w3.org/2000/svg" xmlns:xlink="http://www.w3.org/1999/xlink">
<g id="graph0" class="graph" transform="scale(1 1) rotate(0) translate(4 338)">
<title>%3</title>
<polygon fill="#ffffff" stroke="transparent" points="-4,4 -4,-338 1085,-338 1085,4 -4,4"/>
<!-- 139705123510784 -->
<g id="node1" class="node">
<title>139705123510784</title>
<polygon fill="none" stroke="#000000" points="595,-176 595,-222 670,-222 670,-176 595,-176"/>
<text text-anchor="middle" x="632.5" y="-206.8" font-family="Times,serif" font-size="14.00" fill="#000000">data: &#45;0.25</text>
<polyline fill="none" stroke="#000000" points="595,-199 670,-199 "/>
<text text-anchor="middle" x="632.5" y="-183.8" font-family="Times,serif" font-size="14.00" fill="#000000">grad: 0.0</text>
</g>
<!-- 139705123510832+ -->
<g id="node5" class="node">
<title>139705123510832+</title>
<ellipse fill="none" stroke="#000000" cx="733" cy="-237" rx="27" ry="18"/>
<text text-anchor="middle" x="733" y="-233.3" font-family="Times,serif" font-size="14.00" fill="#000000">+</text>
</g>
<!-- 139705123510784&#45;&gt;139705123510832+ -->
<g id="edge9" class="edge">
<title>139705123510784&#45;&gt;139705123510832+</title>
<path fill="none" stroke="#000000" d="M670.2084,-213.2579C679.9642,-216.9467 690.3938,-220.8902 699.8944,-224.4825"/>
<polygon fill="#000000" stroke="#000000" points="698.8,-227.8104 709.3916,-228.0734 701.2758,-221.2629 698.8,-227.8104"/>
</g>
<!-- 139705123510784* -->
<g id="node2" class="node">
<title>139705123510784*</title>
<ellipse fill="none" stroke="#000000" cx="532" cy="-199" rx="27" ry="18"/>
<text text-anchor="middle" x="532" y="-195.3" font-family="Times,serif" font-size="14.00" fill="#000000">*</text>
</g>
<!-- 139705123510784*&#45;&gt;139705123510784 -->
<g id="edge1" class="edge">
<title>139705123510784*&#45;&gt;139705123510784</title>
<path fill="none" stroke="#000000" d="M559.1967,-199C567.0518,-199 575.8664,-199 584.587,-199"/>
<polygon fill="#000000" stroke="#000000" points="584.7178,-202.5001 594.7178,-199 584.7178,-195.5001 584.7178,-202.5001"/>
</g>
<!-- 139705123509776 -->
<g id="node3" class="node">
<title>139705123509776</title>
<polygon fill="none" stroke="#000000" points="3,-88.5 3,-157.5 68,-157.5 68,-88.5 3,-88.5"/>
<text text-anchor="middle" x="35.5" y="-142.3" font-family="Times,serif" font-size="14.00" fill="#000000">w1</text>
<polyline fill="none" stroke="#000000" points="3,-134.5 68,-134.5 "/>
<text text-anchor="middle" x="35.5" y="-119.3" font-family="Times,serif" font-size="14.00" fill="#000000">data: 0.5</text>
<polyline fill="none" stroke="#000000" points="3,-111.5 68,-111.5 "/>
<text text-anchor="middle" x="35.5" y="-96.3" font-family="Times,serif" font-size="14.00" fill="#000000">grad: 0.0</text>
</g>
<!-- 139705123510640* -->
<g id="node13" class="node">
<title>139705123510640*</title>
<ellipse fill="none" stroke="#000000" cx="134" cy="-123" rx="27" ry="18"/>
<text text-anchor="middle" x="134" y="-119.3" font-family="Times,serif" font-size="14.00" fill="#000000">*</text>
</g>
<!-- 139705123509776&#45;&gt;139705123510640* -->
<g id="edge7" class="edge">
<title>139705123509776&#45;&gt;139705123510640*</title>
<path fill="none" stroke="#000000" d="M68.0256,-123C77.1456,-123 87.1338,-123 96.5168,-123"/>
<polygon fill="#000000" stroke="#000000" points="96.7748,-126.5001 106.7747,-123 96.7747,-119.5001 96.7748,-126.5001"/>
</g>
<!-- 139705123510832 -->
<g id="node4" class="node">
<title>139705123510832</title>
<polygon fill="none" stroke="#000000" points="796,-214 796,-260 871,-260 871,-214 796,-214"/>
<text text-anchor="middle" x="833.5" y="-244.8" font-family="Times,serif" font-size="14.00" fill="#000000">data: &#45;0.25</text>
<polyline fill="none" stroke="#000000" points="796,-237 871,-237 "/>
<text text-anchor="middle" x="833.5" y="-221.8" font-family="Times,serif" font-size="14.00" fill="#000000">grad: 0.0</text>
</g>
<!-- 139705123510160**2 -->
<g id="node15" class="node">
<title>139705123510160**2</title>
<ellipse fill="none" stroke="#000000" cx="934" cy="-237" rx="27" ry="18"/>
<text text-anchor="middle" x="934" y="-233.3" font-family="Times,serif" font-size="14.00" fill="#000000">**2</text>
</g>
<!-- 139705123510832&#45;&gt;139705123510160**2 -->
<g id="edge8" class="edge">
<title>139705123510832&#45;&gt;139705123510160**2</title>
<path fill="none" stroke="#000000" d="M871.2084,-237C879.5109,-237 888.3013,-237 896.5918,-237"/>
<polygon fill="#000000" stroke="#000000" points="896.7515,-240.5001 906.7515,-237 896.7515,-233.5001 896.7515,-240.5001"/>
</g>
<!-- 139705123510832+&#45;&gt;139705123510832 -->
<g id="edge2" class="edge">
<title>139705123510832+&#45;&gt;139705123510832</title>
<path fill="none" stroke="#000000" d="M760.1967,-237C768.0518,-237 776.8664,-237 785.587,-237"/>
<polygon fill="#000000" stroke="#000000" points="785.7178,-240.5001 795.7178,-237 785.7178,-233.5001 785.7178,-240.5001"/>
</g>
<!-- 139705123509824 -->
<g id="node6" class="node">
<title>139705123509824</title>
<polygon fill="none" stroke="#000000" points="1.5,-264.5 1.5,-333.5 69.5,-333.5 69.5,-264.5 1.5,-264.5"/>
<text text-anchor="middle" x="35.5" y="-318.3" font-family="Times,serif" font-size="14.00" fill="#000000">x2</text>
<polyline fill="none" stroke="#000000" points="1.5,-310.5 69.5,-310.5 "/>
<text text-anchor="middle" x="35.5" y="-295.3" font-family="Times,serif" font-size="14.00" fill="#000000">data: &#45;1.0</text>
<polyline fill="none" stroke="#000000" points="1.5,-287.5 69.5,-287.5 "/>
<text text-anchor="middle" x="35.5" y="-272.3" font-family="Times,serif" font-size="14.00" fill="#000000">grad: 0.0</text>
</g>
<!-- 139705123509392* -->
<g id="node8" class="node">
<title>139705123509392*</title>
<ellipse fill="none" stroke="#000000" cx="134" cy="-211" rx="27" ry="18"/>
<text text-anchor="middle" x="134" y="-207.3" font-family="Times,serif" font-size="14.00" fill="#000000">*</text>
</g>
<!-- 139705123509824&#45;&gt;139705123509392* -->
<g id="edge17" class="edge">
<title>139705123509824&#45;&gt;139705123509392*</title>
<path fill="none" stroke="#000000" d="M69.6741,-268.4688C83.0747,-256.4967 98.1234,-243.0522 110.2942,-232.1787"/>
<polygon fill="#000000" stroke="#000000" points="112.7049,-234.7185 117.8304,-225.4459 108.0412,-229.4983 112.7049,-234.7185"/>
</g>
<!-- 139705123509392 -->
<g id="node7" class="node">
<title>139705123509392</title>
<polygon fill="none" stroke="#000000" points="197,-182 197,-228 272,-228 272,-182 197,-182"/>
<text text-anchor="middle" x="234.5" y="-212.8" font-family="Times,serif" font-size="14.00" fill="#000000">data: &#45;0.75</text>
<polyline fill="none" stroke="#000000" points="197,-205 272,-205 "/>
<text text-anchor="middle" x="234.5" y="-189.8" font-family="Times,serif" font-size="14.00" fill="#000000">grad: 0.0</text>
</g>
<!-- 139705123509728+ -->
<g id="node18" class="node">
<title>139705123509728+</title>
<ellipse fill="none" stroke="#000000" cx="335" cy="-161" rx="27" ry="18"/>
<text text-anchor="middle" x="335" y="-157.3" font-family="Times,serif" font-size="14.00" fill="#000000">+</text>
</g>
<!-- 139705123509392&#45;&gt;139705123509728+ -->
<g id="edge14" class="edge">
<title>139705123509392&#45;&gt;139705123509728+</title>
<path fill="none" stroke="#000000" d="M272.2084,-188.4908C282.3176,-184.0649 293.1502,-179.3223 302.923,-175.0437"/>
<polygon fill="#000000" stroke="#000000" points="304.5196,-178.1655 312.2764,-170.9486 301.7122,-171.7531 304.5196,-178.1655"/>
</g>
<!-- 139705123509392*&#45;&gt;139705123509392 -->
<g id="edge3" class="edge">
<title>139705123509392*&#45;&gt;139705123509392</title>
<path fill="none" stroke="#000000" d="M160.9322,-209.3921C168.8723,-208.9181 177.8106,-208.3844 186.6496,-207.8567"/>
<polygon fill="#000000" stroke="#000000" points="187.1409,-211.3337 196.9145,-207.2439 186.7236,-204.3462 187.1409,-211.3337"/>
</g>
<!-- 139705123509920 -->
<g id="node9" class="node">
<title>139705123509920</title>
<polygon fill="none" stroke="#000000" points="399.5,-214 399.5,-260 467.5,-260 467.5,-214 399.5,-214"/>
<text text-anchor="middle" x="433.5" y="-244.8" font-family="Times,serif" font-size="14.00" fill="#000000">data: &#45;1.0</text>
<polyline fill="none" stroke="#000000" points="399.5,-237 467.5,-237 "/>
<text text-anchor="middle" x="433.5" y="-221.8" font-family="Times,serif" font-size="14.00" fill="#000000">grad: 0.0</text>
</g>
<!-- 139705123509920&#45;&gt;139705123510784* -->
<g id="edge11" class="edge">
<title>139705123509920&#45;&gt;139705123510784*</title>
<path fill="none" stroke="#000000" d="M467.6741,-223.8161C477.7591,-219.9254 488.7775,-215.6747 498.8002,-211.8081"/>
<polygon fill="#000000" stroke="#000000" points="500.3495,-214.9618 508.4195,-208.097 497.8299,-208.431 500.3495,-214.9618"/>
</g>
<!-- 139705123511504 -->
<g id="node10" class="node">
<title>139705123511504</title>
<polygon fill="none" stroke="#000000" points="0,-176.5 0,-245.5 71,-245.5 71,-176.5 0,-176.5"/>
<text text-anchor="middle" x="35.5" y="-230.3" font-family="Times,serif" font-size="14.00" fill="#000000">w2</text>
<polyline fill="none" stroke="#000000" points="0,-222.5 71,-222.5 "/>
<text text-anchor="middle" x="35.5" y="-207.3" font-family="Times,serif" font-size="14.00" fill="#000000">data: 0.75</text>
<polyline fill="none" stroke="#000000" points="0,-199.5 71,-199.5 "/>
<text text-anchor="middle" x="35.5" y="-184.3" font-family="Times,serif" font-size="14.00" fill="#000000">grad: 0.0</text>
</g>
<!-- 139705123511504&#45;&gt;139705123509392* -->
<g id="edge15" class="edge">
<title>139705123511504&#45;&gt;139705123509392*</title>
<path fill="none" stroke="#000000" d="M71.0608,-211C79.3525,-211 88.2065,-211 96.5762,-211"/>
<polygon fill="#000000" stroke="#000000" points="96.84,-214.5001 106.84,-211 96.84,-207.5001 96.84,-214.5001"/>
</g>
<!-- 139706082137424 -->
<g id="node11" class="node">
<title>139706082137424</title>
<polygon fill="none" stroke="#000000" points="3,-.5 3,-69.5 68,-69.5 68,-.5 3,-.5"/>
<text text-anchor="middle" x="35.5" y="-54.3" font-family="Times,serif" font-size="14.00" fill="#000000">x1</text>
<polyline fill="none" stroke="#000000" points="3,-46.5 68,-46.5 "/>
<text text-anchor="middle" x="35.5" y="-31.3" font-family="Times,serif" font-size="14.00" fill="#000000">data: 2.0</text>
<polyline fill="none" stroke="#000000" points="3,-23.5 68,-23.5 "/>
<text text-anchor="middle" x="35.5" y="-8.3" font-family="Times,serif" font-size="14.00" fill="#000000">grad: 0.0</text>
</g>
<!-- 139706082137424&#45;&gt;139705123510640* -->
<g id="edge13" class="edge">
<title>139706082137424&#45;&gt;139705123510640*</title>
<path fill="none" stroke="#000000" d="M68.0256,-64.0584C81.724,-76.2965 97.3811,-90.2846 110.004,-101.5619"/>
<polygon fill="#000000" stroke="#000000" points="108.0205,-104.4832 117.8097,-108.5356 112.6842,-99.2631 108.0205,-104.4832"/>
</g>
<!-- 139705123510640 -->
<g id="node12" class="node">
<title>139705123510640</title>
<polygon fill="none" stroke="#000000" points="202,-106 202,-152 267,-152 267,-106 202,-106"/>
<text text-anchor="middle" x="234.5" y="-136.8" font-family="Times,serif" font-size="14.00" fill="#000000">data: 1.0</text>
<polyline fill="none" stroke="#000000" points="202,-129 267,-129 "/>
<text text-anchor="middle" x="234.5" y="-113.8" font-family="Times,serif" font-size="14.00" fill="#000000">grad: 0.0</text>
</g>
<!-- 139705123510640&#45;&gt;139705123509728+ -->
<g id="edge12" class="edge">
<title>139705123510640&#45;&gt;139705123509728+</title>
<path fill="none" stroke="#000000" d="M267.1295,-139.3895C277.9244,-142.8267 289.9616,-146.6594 300.8663,-150.1315"/>
<polygon fill="#000000" stroke="#000000" points="299.9037,-153.4981 310.4943,-153.1972 302.0276,-146.8281 299.9037,-153.4981"/>
</g>
<!-- 139705123510640*&#45;&gt;139705123510640 -->
<g id="edge4" class="edge">
<title>139705123510640*&#45;&gt;139705123510640</title>
<path fill="none" stroke="#000000" d="M160.9322,-124.6079C170.3514,-125.1702 181.1751,-125.8164 191.5715,-126.4371"/>
<polygon fill="#000000" stroke="#000000" points="191.5668,-129.943 201.7577,-127.0452 191.9841,-122.9554 191.5668,-129.943"/>
</g>
<!-- 139705123510160 -->
<g id="node14" class="node">
<title>139705123510160</title>
<polygon fill="none" stroke="#000000" points="997,-202.5 997,-271.5 1081,-271.5 1081,-202.5 997,-202.5"/>
<text text-anchor="middle" x="1039" y="-256.3" font-family="Times,serif" font-size="14.00" fill="#000000">loss</text>
<polyline fill="none" stroke="#000000" points="997,-248.5 1081,-248.5 "/>
<text text-anchor="middle" x="1039" y="-233.3" font-family="Times,serif" font-size="14.00" fill="#000000">data: 0.0625</text>
<polyline fill="none" stroke="#000000" points="997,-225.5 1081,-225.5 "/>
<text text-anchor="middle" x="1039" y="-210.3" font-family="Times,serif" font-size="14.00" fill="#000000">grad: 0.0</text>
</g>
<!-- 139705123510160**2&#45;&gt;139705123510160 -->
<g id="edge5" class="edge">
<title>139705123510160**2&#45;&gt;139705123510160</title>
<path fill="none" stroke="#000000" d="M961.0401,-237C968.9868,-237 977.9603,-237 986.9177,-237"/>
<polygon fill="#000000" stroke="#000000" points="986.9683,-240.5001 996.9683,-237 986.9683,-233.5001 986.9683,-240.5001"/>
</g>
<!-- 139705123510208 -->
<g id="node16" class="node">
<title>139705123510208</title>
<polygon fill="none" stroke="#000000" points="600,-241.5 600,-310.5 665,-310.5 665,-241.5 600,-241.5"/>
<text text-anchor="middle" x="632.5" y="-295.3" font-family="Times,serif" font-size="14.00" fill="#000000">y</text>
<polyline fill="none" stroke="#000000" points="600,-287.5 665,-287.5 "/>
<text text-anchor="middle" x="632.5" y="-272.3" font-family="Times,serif" font-size="14.00" fill="#000000">data: 0.0</text>
<polyline fill="none" stroke="#000000" points="600,-264.5 665,-264.5 "/>
<text text-anchor="middle" x="632.5" y="-249.3" font-family="Times,serif" font-size="14.00" fill="#000000">grad: 0.0</text>
</g>
<!-- 139705123510208&#45;&gt;139705123510832+ -->
<g id="edge16" class="edge">
<title>139705123510208&#45;&gt;139705123510832+</title>
<path fill="none" stroke="#000000" d="M665.1295,-263.3378C676.3005,-259.0028 688.8019,-254.1515 700.0019,-249.8052"/>
<polygon fill="#000000" stroke="#000000" points="701.3867,-253.0222 709.4432,-246.1415 698.8543,-246.4963 701.3867,-253.0222"/>
</g>
<!-- 139705123509728 -->
<g id="node17" class="node">
<title>139705123509728</title>
<polygon fill="none" stroke="#000000" points="398,-126.5 398,-195.5 469,-195.5 469,-126.5 398,-126.5"/>
<text text-anchor="middle" x="433.5" y="-180.3" font-family="Times,serif" font-size="14.00" fill="#000000">y_hat</text>
<polyline fill="none" stroke="#000000" points="398,-172.5 469,-172.5 "/>
<text text-anchor="middle" x="433.5" y="-157.3" font-family="Times,serif" font-size="14.00" fill="#000000">data: 0.25</text>
<polyline fill="none" stroke="#000000" points="398,-149.5 469,-149.5 "/>
<text text-anchor="middle" x="433.5" y="-134.3" font-family="Times,serif" font-size="14.00" fill="#000000">grad: 0.0</text>
</g>
<!-- 139705123509728&#45;&gt;139705123510784* -->
<g id="edge10" class="edge">
<title>139705123509728&#45;&gt;139705123510784*</title>
<path fill="none" stroke="#000000" d="M469.0608,-174.7189C478.7947,-178.4741 489.3036,-182.5283 498.8941,-186.2282"/>
<polygon fill="#000000" stroke="#000000" points="497.8955,-189.5943 508.485,-189.9282 500.415,-183.0634 497.8955,-189.5943"/>
</g>
<!-- 139705123509728+&#45;&gt;139705123509728 -->
<g id="edge6" class="edge">
<title>139705123509728+&#45;&gt;139705123509728</title>
<path fill="none" stroke="#000000" d="M362.1763,-161C370.1165,-161 379.0218,-161 387.7776,-161"/>
<polygon fill="#000000" stroke="#000000" points="387.9208,-164.5001 397.9207,-161 387.9207,-157.5001 387.9208,-164.5001"/>
</g>
</g>
</svg>
