<?xml version="1.0" encoding="UTF-8" standalone="no"?>
<!DOCTYPE svg PUBLIC "-//W3C//DTD SVG 1.1//EN"
 "http://www.w3.org/Graphics/SVG/1.1/DTD/svg11.dtd">
<!-- Generated by graphviz version 2.40.1 (20161225.0304)
 -->
<!-- Title: %3 Pages: 1 -->
<svg width="3611pt" height="477pt"
 viewBox="0.00 0.00 3610.79 477.00" xmlns="http://www.w3.org/2000/svg" xmlns:xlink="http://www.w3.org/1999/xlink">
<g id="graph0" class="graph" transform="scale(1 1) rotate(0) translate(4 473)">
<title>%3</title>
<polygon fill="#ffffff" stroke="transparent" points="-4,4 -4,-473 3606.7889,-473 3606.7889,4 -4,4"/>
<!-- 139806236225600 -->
<g id="node1" class="node">
<title>139806236225600</title>
<polygon fill="none" stroke="#000000" points="999.5,-399.5 999.5,-468.5 1109.5,-468.5 1109.5,-399.5 999.5,-399.5"/>
<text text-anchor="middle" x="1054.5" y="-453.3" font-family="Times,serif" font-size="14.00" fill="#000000">Ones</text>
<polyline fill="none" stroke="#000000" points="999.5,-445.5 1109.5,-445.5 "/>
<text text-anchor="middle" x="1054.5" y="-430.3" font-family="Times,serif" font-size="14.00" fill="#000000">data dim: (32, 1)</text>
<polyline fill="none" stroke="#000000" points="999.5,-422.5 1109.5,-422.5 "/>
<text text-anchor="middle" x="1054.5" y="-407.3" font-family="Times,serif" font-size="14.00" fill="#000000">grad dim: (32, 1)</text>
</g>
<!-- 139806236225792@ -->
<g id="node9" class="node">
<title>139806236225792@</title>
<ellipse fill="none" stroke="#000000" cx="1176" cy="-346" rx="27" ry="18"/>
<text text-anchor="middle" x="1176" y="-342.3" font-family="Times,serif" font-size="14.00" fill="#000000">@</text>
</g>
<!-- 139806236225600&#45;&gt;139806236225792@ -->
<g id="edge48" class="edge">
<title>139806236225600&#45;&gt;139806236225792@</title>
<path fill="none" stroke="#000000" d="M1102.1713,-399.4726C1118.2475,-387.8289 1135.6066,-375.2562 1149.4507,-365.2291"/>
<polygon fill="#000000" stroke="#000000" points="1151.5278,-368.0464 1157.5736,-359.3459 1147.4216,-362.3772 1151.5278,-368.0464"/>
</g>
<!-- 139807284762704 -->
<g id="node2" class="node">
<title>139807284762704</title>
<polygon fill="none" stroke="#000000" points="257,-182.5 257,-251.5 367,-251.5 367,-182.5 257,-182.5"/>
<text text-anchor="middle" x="312" y="-236.3" font-family="Times,serif" font-size="14.00" fill="#000000">Layer0.bias</text>
<polyline fill="none" stroke="#000000" points="257,-228.5 367,-228.5 "/>
<text text-anchor="middle" x="312" y="-213.3" font-family="Times,serif" font-size="14.00" fill="#000000">data dim: (1, 80)</text>
<polyline fill="none" stroke="#000000" points="257,-205.5 367,-205.5 "/>
<text text-anchor="middle" x="312" y="-190.3" font-family="Times,serif" font-size="14.00" fill="#000000">grad dim: (1, 80)</text>
</g>
<!-- 139806236159232@ -->
<g id="node31" class="node">
<title>139806236159232@</title>
<ellipse fill="none" stroke="#000000" cx="437" cy="-217" rx="27" ry="18"/>
<text text-anchor="middle" x="437" y="-213.3" font-family="Times,serif" font-size="14.00" fill="#000000">@</text>
</g>
<!-- 139807284762704&#45;&gt;139806236159232@ -->
<g id="edge38" class="edge">
<title>139807284762704&#45;&gt;139806236159232@</title>
<path fill="none" stroke="#000000" d="M367.1907,-217C378.1608,-217 389.4355,-217 399.6379,-217"/>
<polygon fill="#000000" stroke="#000000" points="399.8239,-220.5001 409.8239,-217 399.8239,-213.5001 399.8239,-220.5001"/>
</g>
<!-- 139807195107392 -->
<g id="node3" class="node">
<title>139807195107392</title>
<polygon fill="none" stroke="#000000" points="2717,-14.5 2717,-83.5 2834,-83.5 2834,-14.5 2717,-14.5"/>
<text text-anchor="middle" x="2775.5" y="-68.3" font-family="Times,serif" font-size="14.00" fill="#000000">y</text>
<polyline fill="none" stroke="#000000" points="2717,-60.5 2834,-60.5 "/>
<text text-anchor="middle" x="2775.5" y="-45.3" font-family="Times,serif" font-size="14.00" fill="#000000">data dim: (32, 10)</text>
<polyline fill="none" stroke="#000000" points="2717,-37.5 2834,-37.5 "/>
<text text-anchor="middle" x="2775.5" y="-22.3" font-family="Times,serif" font-size="14.00" fill="#000000">grad dim: (32, 10)</text>
</g>
<!-- 139806236227520+ -->
<g id="node48" class="node">
<title>139806236227520+</title>
<ellipse fill="none" stroke="#000000" cx="2897" cy="-87" rx="27" ry="18"/>
<text text-anchor="middle" x="2897" y="-83.3" font-family="Times,serif" font-size="14.00" fill="#000000">+</text>
</g>
<!-- 139807195107392&#45;&gt;139806236227520+ -->
<g id="edge35" class="edge">
<title>139807195107392&#45;&gt;139806236227520+</title>
<path fill="none" stroke="#000000" d="M2834.1146,-67.3322C2843.9027,-70.3934 2853.7647,-73.4778 2862.6827,-76.267"/>
<polygon fill="#000000" stroke="#000000" points="2861.7071,-79.629 2872.296,-79.2736 2863.7966,-72.9481 2861.7071,-79.629"/>
</g>
<!-- 139806236227712 -->
<g id="node4" class="node">
<title>139806236227712</title>
<polygon fill="none" stroke="#000000" points="3203,-64 3203,-110 3320,-110 3320,-64 3203,-64"/>
<text text-anchor="middle" x="3261.5" y="-94.8" font-family="Times,serif" font-size="14.00" fill="#000000">data dim: (32, 10)</text>
<polyline fill="none" stroke="#000000" points="3203,-87 3320,-87 "/>
<text text-anchor="middle" x="3261.5" y="-71.8" font-family="Times,serif" font-size="14.00" fill="#000000">grad dim: (32, 10)</text>
</g>
<!-- 139806236227856.sum(dim=all) -->
<g id="node11" class="node">
<title>139806236227856.sum(dim=all)</title>
<ellipse fill="none" stroke="#000000" cx="3418.3945" cy="-87" rx="62.2891" ry="18"/>
<text text-anchor="middle" x="3418.3945" y="-83.3" font-family="Times,serif" font-size="14.00" fill="#000000">.sum(dim=all)</text>
</g>
<!-- 139806236227712&#45;&gt;139806236227856.sum(dim=all) -->
<g id="edge42" class="edge">
<title>139806236227712&#45;&gt;139806236227856.sum(dim=all)</title>
<path fill="none" stroke="#000000" d="M3320.3681,-87C3328.5898,-87 3337.1181,-87 3345.5592,-87"/>
<polygon fill="#000000" stroke="#000000" points="3345.7859,-90.5001 3355.7859,-87 3345.7859,-83.5001 3345.7859,-90.5001"/>
</g>
<!-- 139806236227712**2 -->
<g id="node5" class="node">
<title>139806236227712**2</title>
<ellipse fill="none" stroke="#000000" cx="3140" cy="-87" rx="27" ry="18"/>
<text text-anchor="middle" x="3140" y="-83.3" font-family="Times,serif" font-size="14.00" fill="#000000">**2</text>
</g>
<!-- 139806236227712**2&#45;&gt;139806236227712 -->
<g id="edge1" class="edge">
<title>139806236227712**2&#45;&gt;139806236227712</title>
<path fill="none" stroke="#000000" d="M3167.267,-87C3174.8921,-87 3183.5407,-87 3192.4316,-87"/>
<polygon fill="#000000" stroke="#000000" points="3192.531,-90.5001 3202.5309,-87 3192.5309,-83.5001 3192.531,-90.5001"/>
</g>
<!-- 139807195107488 -->
<g id="node6" class="node">
<title>139807195107488</title>
<polygon fill="none" stroke="#000000" points="250,-358.5 250,-427.5 374,-427.5 374,-358.5 250,-358.5"/>
<text text-anchor="middle" x="312" y="-412.3" font-family="Times,serif" font-size="14.00" fill="#000000">Layer0.weight.T</text>
<polyline fill="none" stroke="#000000" points="250,-404.5 374,-404.5 "/>
<text text-anchor="middle" x="312" y="-389.3" font-family="Times,serif" font-size="14.00" fill="#000000">data dim: (784, 80)</text>
<polyline fill="none" stroke="#000000" points="250,-381.5 374,-381.5 "/>
<text text-anchor="middle" x="312" y="-366.3" font-family="Times,serif" font-size="14.00" fill="#000000">grad dim: (784, 80)</text>
</g>
<!-- 139806236158992@ -->
<g id="node25" class="node">
<title>139806236158992@</title>
<ellipse fill="none" stroke="#000000" cx="437" cy="-305" rx="27" ry="18"/>
<text text-anchor="middle" x="437" y="-301.3" font-family="Times,serif" font-size="14.00" fill="#000000">@</text>
</g>
<!-- 139807195107488&#45;&gt;139806236158992@ -->
<g id="edge33" class="edge">
<title>139807195107488&#45;&gt;139806236158992@</title>
<path fill="none" stroke="#000000" d="M361.0445,-358.4726C377.6972,-346.7492 395.6877,-334.0839 409.9781,-324.0234"/>
<polygon fill="#000000" stroke="#000000" points="412.1906,-326.7462 418.3527,-318.1277 408.161,-321.0224 412.1906,-326.7462"/>
</g>
<!-- 139807195107488.T -->
<g id="node7" class="node">
<title>139807195107488.T</title>
<ellipse fill="none" stroke="#000000" cx="187" cy="-393" rx="27" ry="18"/>
<text text-anchor="middle" x="187" y="-389.3" font-family="Times,serif" font-size="14.00" fill="#000000">.T</text>
</g>
<!-- 139807195107488.T&#45;&gt;139807195107488 -->
<g id="edge2" class="edge">
<title>139807195107488.T&#45;&gt;139807195107488</title>
<path fill="none" stroke="#000000" d="M214.1231,-393C221.7921,-393 230.5207,-393 239.533,-393"/>
<polygon fill="#000000" stroke="#000000" points="239.7876,-396.5001 249.7875,-393 239.7875,-389.5001 239.7876,-396.5001"/>
</g>
<!-- 139806236225792 -->
<g id="node8" class="node">
<title>139806236225792</title>
<polygon fill="none" stroke="#000000" points="1244,-320 1244,-366 1361,-366 1361,-320 1244,-320"/>
<text text-anchor="middle" x="1302.5" y="-350.8" font-family="Times,serif" font-size="14.00" fill="#000000">data dim: (32, 20)</text>
<polyline fill="none" stroke="#000000" points="1244,-343 1361,-343 "/>
<text text-anchor="middle" x="1302.5" y="-327.8" font-family="Times,serif" font-size="14.00" fill="#000000">grad dim: (32, 20)</text>
</g>
<!-- 139806236225984+ -->
<g id="node13" class="node">
<title>139806236225984+</title>
<ellipse fill="none" stroke="#000000" cx="1429" cy="-299" rx="27" ry="18"/>
<text text-anchor="middle" x="1429" y="-295.3" font-family="Times,serif" font-size="14.00" fill="#000000">+</text>
</g>
<!-- 139806236225792&#45;&gt;139806236225984+ -->
<g id="edge37" class="edge">
<title>139806236225792&#45;&gt;139806236225984+</title>
<path fill="none" stroke="#000000" d="M1361.306,-322.5457C1372.9429,-318.4981 1384.7815,-314.3804 1395.2356,-310.7442"/>
<polygon fill="#000000" stroke="#000000" points="1396.4874,-314.0145 1404.7826,-307.4235 1394.1877,-307.403 1396.4874,-314.0145"/>
</g>
<!-- 139806236225792@&#45;&gt;139806236225792 -->
<g id="edge3" class="edge">
<title>139806236225792@&#45;&gt;139806236225792</title>
<path fill="none" stroke="#000000" d="M1203.1374,-345.3564C1212.3085,-345.1389 1223.0029,-344.8853 1233.9107,-344.6266"/>
<polygon fill="#000000" stroke="#000000" points="1234.0362,-348.1247 1243.9504,-344.3885 1233.8702,-341.1267 1234.0362,-348.1247"/>
</g>
<!-- 139806236227856 -->
<g id="node10" class="node">
<title>139806236227856</title>
<polygon fill="none" stroke="#000000" points="3516.7889,-64 3516.7889,-110 3602.7889,-110 3602.7889,-64 3516.7889,-64"/>
<text text-anchor="middle" x="3559.7889" y="-94.8" font-family="Times,serif" font-size="14.00" fill="#000000">data: nan</text>
<polyline fill="none" stroke="#000000" points="3516.7889,-87 3602.7889,-87 "/>
<text text-anchor="middle" x="3559.7889" y="-71.8" font-family="Times,serif" font-size="14.00" fill="#000000">grad: 1.0000</text>
</g>
<!-- 139806236227856.sum(dim=all)&#45;&gt;139806236227856 -->
<g id="edge4" class="edge">
<title>139806236227856.sum(dim=all)&#45;&gt;139806236227856</title>
<path fill="none" stroke="#000000" d="M3480.8237,-87C3489.4493,-87 3498.2413,-87 3506.6767,-87"/>
<polygon fill="#000000" stroke="#000000" points="3506.754,-90.5001 3516.754,-87 3506.7539,-83.5001 3506.754,-90.5001"/>
</g>
<!-- 139806236225984 -->
<g id="node12" class="node">
<title>139806236225984</title>
<polygon fill="none" stroke="#000000" points="1492,-276 1492,-322 1609,-322 1609,-276 1492,-276"/>
<text text-anchor="middle" x="1550.5" y="-306.8" font-family="Times,serif" font-size="14.00" fill="#000000">data dim: (32, 20)</text>
<polyline fill="none" stroke="#000000" points="1492,-299 1609,-299 "/>
<text text-anchor="middle" x="1550.5" y="-283.8" font-family="Times,serif" font-size="14.00" fill="#000000">grad dim: (32, 20)</text>
</g>
<!-- 139806236226176tanh -->
<g id="node18" class="node">
<title>139806236226176tanh</title>
<ellipse fill="none" stroke="#000000" cx="1672" cy="-299" rx="27" ry="18"/>
<text text-anchor="middle" x="1672" y="-295.3" font-family="Times,serif" font-size="14.00" fill="#000000">tanh</text>
</g>
<!-- 139806236225984&#45;&gt;139806236226176tanh -->
<g id="edge22" class="edge">
<title>139806236225984&#45;&gt;139806236226176tanh</title>
<path fill="none" stroke="#000000" d="M1609.1146,-299C1617.8066,-299 1626.5569,-299 1634.6526,-299"/>
<polygon fill="#000000" stroke="#000000" points="1634.8583,-302.5001 1644.8583,-299 1634.8582,-295.5001 1634.8583,-302.5001"/>
</g>
<!-- 139806236225984+&#45;&gt;139806236225984 -->
<g id="edge5" class="edge">
<title>139806236225984+&#45;&gt;139806236225984</title>
<path fill="none" stroke="#000000" d="M1456.267,-299C1463.8921,-299 1472.5407,-299 1481.4316,-299"/>
<polygon fill="#000000" stroke="#000000" points="1481.531,-302.5001 1491.5309,-299 1481.5309,-295.5001 1481.531,-302.5001"/>
</g>
<!-- 139806724604400 -->
<g id="node14" class="node">
<title>139806724604400</title>
<polygon fill="none" stroke="#000000" points="999.5,-311.5 999.5,-380.5 1109.5,-380.5 1109.5,-311.5 999.5,-311.5"/>
<text text-anchor="middle" x="1054.5" y="-365.3" font-family="Times,serif" font-size="14.00" fill="#000000">Layer1.bias</text>
<polyline fill="none" stroke="#000000" points="999.5,-357.5 1109.5,-357.5 "/>
<text text-anchor="middle" x="1054.5" y="-342.3" font-family="Times,serif" font-size="14.00" fill="#000000">data dim: (1, 20)</text>
<polyline fill="none" stroke="#000000" points="999.5,-334.5 1109.5,-334.5 "/>
<text text-anchor="middle" x="1054.5" y="-319.3" font-family="Times,serif" font-size="14.00" fill="#000000">grad dim: (1, 20)</text>
</g>
<!-- 139806724604400&#45;&gt;139806236225792@ -->
<g id="edge30" class="edge">
<title>139806724604400&#45;&gt;139806236225792@</title>
<path fill="none" stroke="#000000" d="M1109.5621,-346C1119.5071,-346 1129.6572,-346 1138.9338,-346"/>
<polygon fill="#000000" stroke="#000000" points="1138.9787,-349.5001 1148.9786,-346 1138.9786,-342.5001 1138.9787,-349.5001"/>
</g>
<!-- 139806724569600 -->
<g id="node15" class="node">
<title>139806724569600</title>
<polygon fill="none" stroke="#000000" points="0,-358.5 0,-427.5 124,-427.5 124,-358.5 0,-358.5"/>
<text text-anchor="middle" x="62" y="-412.3" font-family="Times,serif" font-size="14.00" fill="#000000">Layer0.weight</text>
<polyline fill="none" stroke="#000000" points="0,-404.5 124,-404.5 "/>
<text text-anchor="middle" x="62" y="-389.3" font-family="Times,serif" font-size="14.00" fill="#000000">data dim: (80, 784)</text>
<polyline fill="none" stroke="#000000" points="0,-381.5 124,-381.5 "/>
<text text-anchor="middle" x="62" y="-366.3" font-family="Times,serif" font-size="14.00" fill="#000000">grad dim: (80, 784)</text>
</g>
<!-- 139806724569600&#45;&gt;139807195107488.T -->
<g id="edge34" class="edge">
<title>139806724569600&#45;&gt;139807195107488.T</title>
<path fill="none" stroke="#000000" d="M124.1338,-393C132.8249,-393 141.5255,-393 149.5633,-393"/>
<polygon fill="#000000" stroke="#000000" points="149.6914,-396.5001 159.6913,-393 149.6913,-389.5001 149.6914,-396.5001"/>
</g>
<!-- 139806724604496 -->
<g id="node16" class="node">
<title>139806724604496</title>
<polygon fill="none" stroke="#000000" points="753,-135.5 753,-204.5 870,-204.5 870,-135.5 753,-135.5"/>
<text text-anchor="middle" x="811.5" y="-189.3" font-family="Times,serif" font-size="14.00" fill="#000000">Layer1.weight</text>
<polyline fill="none" stroke="#000000" points="753,-181.5 870,-181.5 "/>
<text text-anchor="middle" x="811.5" y="-166.3" font-family="Times,serif" font-size="14.00" fill="#000000">data dim: (20, 80)</text>
<polyline fill="none" stroke="#000000" points="753,-158.5 870,-158.5 "/>
<text text-anchor="middle" x="811.5" y="-143.3" font-family="Times,serif" font-size="14.00" fill="#000000">grad dim: (20, 80)</text>
</g>
<!-- 139806236159952.T -->
<g id="node50" class="node">
<title>139806236159952.T</title>
<ellipse fill="none" stroke="#000000" cx="933" cy="-170" rx="27" ry="18"/>
<text text-anchor="middle" x="933" y="-166.3" font-family="Times,serif" font-size="14.00" fill="#000000">.T</text>
</g>
<!-- 139806724604496&#45;&gt;139806236159952.T -->
<g id="edge29" class="edge">
<title>139806724604496&#45;&gt;139806236159952.T</title>
<path fill="none" stroke="#000000" d="M870.1146,-170C878.8066,-170 887.5569,-170 895.6526,-170"/>
<polygon fill="#000000" stroke="#000000" points="895.8583,-173.5001 905.8583,-170 895.8582,-166.5001 895.8583,-173.5001"/>
</g>
<!-- 139806236226176 -->
<g id="node17" class="node">
<title>139806236226176</title>
<polygon fill="none" stroke="#000000" points="1735,-264.5 1735,-333.5 1852,-333.5 1852,-264.5 1735,-264.5"/>
<text text-anchor="middle" x="1793.5" y="-318.3" font-family="Times,serif" font-size="14.00" fill="#000000">Layer1_output</text>
<polyline fill="none" stroke="#000000" points="1735,-310.5 1852,-310.5 "/>
<text text-anchor="middle" x="1793.5" y="-295.3" font-family="Times,serif" font-size="14.00" fill="#000000">data dim: (32, 20)</text>
<polyline fill="none" stroke="#000000" points="1735,-287.5 1852,-287.5 "/>
<text text-anchor="middle" x="1793.5" y="-272.3" font-family="Times,serif" font-size="14.00" fill="#000000">grad dim: (32, 20)</text>
</g>
<!-- 139806236226512@ -->
<g id="node22" class="node">
<title>139806236226512@</title>
<ellipse fill="none" stroke="#000000" cx="1915" cy="-211" rx="27" ry="18"/>
<text text-anchor="middle" x="1915" y="-207.3" font-family="Times,serif" font-size="14.00" fill="#000000">@</text>
</g>
<!-- 139806236226176&#45;&gt;139806236226512@ -->
<g id="edge43" class="edge">
<title>139806236226176&#45;&gt;139806236226512@</title>
<path fill="none" stroke="#000000" d="M1841.1713,-264.4726C1857.2475,-252.8289 1874.6066,-240.2562 1888.4507,-230.2291"/>
<polygon fill="#000000" stroke="#000000" points="1890.5278,-233.0464 1896.5736,-224.3459 1886.4216,-227.3772 1890.5278,-233.0464"/>
</g>
<!-- 139806236226176tanh&#45;&gt;139806236226176 -->
<g id="edge6" class="edge">
<title>139806236226176tanh&#45;&gt;139806236226176</title>
<path fill="none" stroke="#000000" d="M1699.267,-299C1706.8921,-299 1715.5407,-299 1724.4316,-299"/>
<polygon fill="#000000" stroke="#000000" points="1724.531,-302.5001 1734.5309,-299 1724.5309,-295.5001 1724.531,-302.5001"/>
</g>
<!-- 139806236226320 -->
<g id="node19" class="node">
<title>139806236226320</title>
<polygon fill="none" stroke="#000000" points="1735,-176.5 1735,-245.5 1852,-245.5 1852,-176.5 1735,-176.5"/>
<text text-anchor="middle" x="1793.5" y="-230.3" font-family="Times,serif" font-size="14.00" fill="#000000">Layer2.weight.T</text>
<polyline fill="none" stroke="#000000" points="1735,-222.5 1852,-222.5 "/>
<text text-anchor="middle" x="1793.5" y="-207.3" font-family="Times,serif" font-size="14.00" fill="#000000">data dim: (20, 10)</text>
<polyline fill="none" stroke="#000000" points="1735,-199.5 1852,-199.5 "/>
<text text-anchor="middle" x="1793.5" y="-184.3" font-family="Times,serif" font-size="14.00" fill="#000000">grad dim: (20, 10)</text>
</g>
<!-- 139806236226320&#45;&gt;139806236226512@ -->
<g id="edge44" class="edge">
<title>139806236226320&#45;&gt;139806236226512@</title>
<path fill="none" stroke="#000000" d="M1852.1146,-211C1860.8066,-211 1869.5569,-211 1877.6526,-211"/>
<polygon fill="#000000" stroke="#000000" points="1877.8583,-214.5001 1887.8583,-211 1877.8582,-207.5001 1877.8583,-214.5001"/>
</g>
<!-- 139806236226320.T -->
<g id="node20" class="node">
<title>139806236226320.T</title>
<ellipse fill="none" stroke="#000000" cx="1672" cy="-211" rx="27" ry="18"/>
<text text-anchor="middle" x="1672" y="-207.3" font-family="Times,serif" font-size="14.00" fill="#000000">.T</text>
</g>
<!-- 139806236226320.T&#45;&gt;139806236226320 -->
<g id="edge7" class="edge">
<title>139806236226320.T&#45;&gt;139806236226320</title>
<path fill="none" stroke="#000000" d="M1699.267,-211C1706.8921,-211 1715.5407,-211 1724.4316,-211"/>
<polygon fill="#000000" stroke="#000000" points="1724.531,-214.5001 1734.5309,-211 1724.5309,-207.5001 1724.531,-214.5001"/>
</g>
<!-- 139806236226512 -->
<g id="node21" class="node">
<title>139806236226512</title>
<polygon fill="none" stroke="#000000" points="1978,-173.5 1978,-242.5 2105,-242.5 2105,-173.5 1978,-173.5"/>
<text text-anchor="middle" x="2041.5" y="-227.3" font-family="Times,serif" font-size="14.00" fill="#000000">Layer2_dot_product</text>
<polyline fill="none" stroke="#000000" points="1978,-219.5 2105,-219.5 "/>
<text text-anchor="middle" x="2041.5" y="-204.3" font-family="Times,serif" font-size="14.00" fill="#000000">data dim: (32, 10)</text>
<polyline fill="none" stroke="#000000" points="1978,-196.5 2105,-196.5 "/>
<text text-anchor="middle" x="2041.5" y="-181.3" font-family="Times,serif" font-size="14.00" fill="#000000">grad dim: (32, 10)</text>
</g>
<!-- 139806236226944+ -->
<g id="node33" class="node">
<title>139806236226944+</title>
<ellipse fill="none" stroke="#000000" cx="2168" cy="-164" rx="27" ry="18"/>
<text text-anchor="middle" x="2168" y="-160.3" font-family="Times,serif" font-size="14.00" fill="#000000">+</text>
</g>
<!-- 139806236226512&#45;&gt;139806236226944+ -->
<g id="edge31" class="edge">
<title>139806236226512&#45;&gt;139806236226944+</title>
<path fill="none" stroke="#000000" d="M2105.1206,-185.8711C2115.1339,-182.3882 2125.1347,-178.9097 2134.1193,-175.7846"/>
<polygon fill="#000000" stroke="#000000" points="2135.4828,-179.0161 2143.7779,-172.4251 2133.1831,-172.4046 2135.4828,-179.0161"/>
</g>
<!-- 139806236226512@&#45;&gt;139806236226512 -->
<g id="edge8" class="edge">
<title>139806236226512@&#45;&gt;139806236226512</title>
<path fill="none" stroke="#000000" d="M1942.1374,-210.3564C1949.7857,-210.175 1958.4934,-209.9685 1967.5007,-209.7549"/>
<polygon fill="#000000" stroke="#000000" points="1967.8429,-213.2479 1977.7571,-209.5117 1967.6769,-206.2499 1967.8429,-213.2479"/>
</g>
<!-- 139806236226560 -->
<g id="node23" class="node">
<title>139806236226560</title>
<polygon fill="none" stroke="#000000" points="1738.5,-88.5 1738.5,-157.5 1848.5,-157.5 1848.5,-88.5 1738.5,-88.5"/>
<text text-anchor="middle" x="1793.5" y="-142.3" font-family="Times,serif" font-size="14.00" fill="#000000">Ones</text>
<polyline fill="none" stroke="#000000" points="1738.5,-134.5 1848.5,-134.5 "/>
<text text-anchor="middle" x="1793.5" y="-119.3" font-family="Times,serif" font-size="14.00" fill="#000000">data dim: (32, 1)</text>
<polyline fill="none" stroke="#000000" points="1738.5,-111.5 1848.5,-111.5 "/>
<text text-anchor="middle" x="1793.5" y="-96.3" font-family="Times,serif" font-size="14.00" fill="#000000">grad dim: (32, 1)</text>
</g>
<!-- 139806236226752@ -->
<g id="node29" class="node">
<title>139806236226752@</title>
<ellipse fill="none" stroke="#000000" cx="1915" cy="-123" rx="27" ry="18"/>
<text text-anchor="middle" x="1915" y="-119.3" font-family="Times,serif" font-size="14.00" fill="#000000">@</text>
</g>
<!-- 139806236226560&#45;&gt;139806236226752@ -->
<g id="edge49" class="edge">
<title>139806236226560&#45;&gt;139806236226752@</title>
<path fill="none" stroke="#000000" d="M1848.5621,-123C1858.5071,-123 1868.6572,-123 1877.9338,-123"/>
<polygon fill="#000000" stroke="#000000" points="1877.9787,-126.5001 1887.9786,-123 1877.9786,-119.5001 1877.9787,-126.5001"/>
</g>
<!-- 139806236158992 -->
<g id="node24" class="node">
<title>139806236158992</title>
<polygon fill="none" stroke="#000000" points="500,-267.5 500,-336.5 627,-336.5 627,-267.5 500,-267.5"/>
<text text-anchor="middle" x="563.5" y="-321.3" font-family="Times,serif" font-size="14.00" fill="#000000">Layer0_dot_product</text>
<polyline fill="none" stroke="#000000" points="500,-313.5 627,-313.5 "/>
<text text-anchor="middle" x="563.5" y="-298.3" font-family="Times,serif" font-size="14.00" fill="#000000">data dim: (32, 80)</text>
<polyline fill="none" stroke="#000000" points="500,-290.5 627,-290.5 "/>
<text text-anchor="middle" x="563.5" y="-275.3" font-family="Times,serif" font-size="14.00" fill="#000000">grad dim: (32, 80)</text>
</g>
<!-- 139806236159424+ -->
<g id="node36" class="node">
<title>139806236159424+</title>
<ellipse fill="none" stroke="#000000" cx="690" cy="-258" rx="27" ry="18"/>
<text text-anchor="middle" x="690" y="-254.3" font-family="Times,serif" font-size="14.00" fill="#000000">+</text>
</g>
<!-- 139806236158992&#45;&gt;139806236159424+ -->
<g id="edge20" class="edge">
<title>139806236158992&#45;&gt;139806236159424+</title>
<path fill="none" stroke="#000000" d="M627.1206,-279.8711C637.1339,-276.3882 647.1347,-272.9097 656.1193,-269.7846"/>
<polygon fill="#000000" stroke="#000000" points="657.4828,-273.0161 665.7779,-266.4251 655.1831,-266.4046 657.4828,-273.0161"/>
</g>
<!-- 139806236158992@&#45;&gt;139806236158992 -->
<g id="edge9" class="edge">
<title>139806236158992@&#45;&gt;139806236158992</title>
<path fill="none" stroke="#000000" d="M464.1374,-304.3564C471.7857,-304.175 480.4934,-303.9685 489.5007,-303.7549"/>
<polygon fill="#000000" stroke="#000000" points="489.8429,-307.2479 499.7571,-303.5117 489.6769,-300.2499 489.8429,-307.2479"/>
</g>
<!-- 139807285335088 -->
<g id="node26" class="node">
<title>139807285335088</title>
<polygon fill="none" stroke="#000000" points="250,-270.5 250,-339.5 374,-339.5 374,-270.5 250,-270.5"/>
<text text-anchor="middle" x="312" y="-324.3" font-family="Times,serif" font-size="14.00" fill="#000000">x</text>
<polyline fill="none" stroke="#000000" points="250,-316.5 374,-316.5 "/>
<text text-anchor="middle" x="312" y="-301.3" font-family="Times,serif" font-size="14.00" fill="#000000">data dim: (32, 784)</text>
<polyline fill="none" stroke="#000000" points="250,-293.5 374,-293.5 "/>
<text text-anchor="middle" x="312" y="-278.3" font-family="Times,serif" font-size="14.00" fill="#000000">grad dim: (32, 784)</text>
</g>
<!-- 139807285335088&#45;&gt;139806236158992@ -->
<g id="edge28" class="edge">
<title>139807285335088&#45;&gt;139806236158992@</title>
<path fill="none" stroke="#000000" d="M374.1338,-305C382.8249,-305 391.5255,-305 399.5633,-305"/>
<polygon fill="#000000" stroke="#000000" points="399.6914,-308.5001 409.6913,-305 399.6913,-301.5001 399.6914,-308.5001"/>
</g>
<!-- 139806236159040 -->
<g id="node27" class="node">
<title>139806236159040</title>
<polygon fill="none" stroke="#000000" points="257,-94.5 257,-163.5 367,-163.5 367,-94.5 257,-94.5"/>
<text text-anchor="middle" x="312" y="-148.3" font-family="Times,serif" font-size="14.00" fill="#000000">Ones</text>
<polyline fill="none" stroke="#000000" points="257,-140.5 367,-140.5 "/>
<text text-anchor="middle" x="312" y="-125.3" font-family="Times,serif" font-size="14.00" fill="#000000">data dim: (32, 1)</text>
<polyline fill="none" stroke="#000000" points="257,-117.5 367,-117.5 "/>
<text text-anchor="middle" x="312" y="-102.3" font-family="Times,serif" font-size="14.00" fill="#000000">grad dim: (32, 1)</text>
</g>
<!-- 139806236159040&#45;&gt;139806236159232@ -->
<g id="edge40" class="edge">
<title>139806236159040&#45;&gt;139806236159232@</title>
<path fill="none" stroke="#000000" d="M361.0445,-163.5274C377.6972,-175.2508 395.6877,-187.9161 409.9781,-197.9766"/>
<polygon fill="#000000" stroke="#000000" points="408.161,-200.9776 418.3527,-203.8723 412.1906,-195.2538 408.161,-200.9776"/>
</g>
<!-- 139806236226752 -->
<g id="node28" class="node">
<title>139806236226752</title>
<polygon fill="none" stroke="#000000" points="1983,-103 1983,-149 2100,-149 2100,-103 1983,-103"/>
<text text-anchor="middle" x="2041.5" y="-133.8" font-family="Times,serif" font-size="14.00" fill="#000000">data dim: (32, 10)</text>
<polyline fill="none" stroke="#000000" points="1983,-126 2100,-126 "/>
<text text-anchor="middle" x="2041.5" y="-110.8" font-family="Times,serif" font-size="14.00" fill="#000000">grad dim: (32, 10)</text>
</g>
<!-- 139806236226752&#45;&gt;139806236226944+ -->
<g id="edge39" class="edge">
<title>139806236226752&#45;&gt;139806236226944+</title>
<path fill="none" stroke="#000000" d="M2100.306,-143.665C2111.6294,-147.0665 2123.1437,-150.5254 2133.3876,-153.6026"/>
<polygon fill="#000000" stroke="#000000" points="2132.5697,-157.0114 2143.1539,-156.5363 2134.5836,-150.3073 2132.5697,-157.0114"/>
</g>
<!-- 139806236226752@&#45;&gt;139806236226752 -->
<g id="edge10" class="edge">
<title>139806236226752@&#45;&gt;139806236226752</title>
<path fill="none" stroke="#000000" d="M1942.1374,-123.6436C1951.3085,-123.8611 1962.0029,-124.1147 1972.9107,-124.3734"/>
<polygon fill="#000000" stroke="#000000" points="1972.8702,-127.8733 1982.9504,-124.6115 1973.0362,-120.8753 1972.8702,-127.8733"/>
</g>
<!-- 139806236159232 -->
<g id="node30" class="node">
<title>139806236159232</title>
<polygon fill="none" stroke="#000000" points="505,-197 505,-243 622,-243 622,-197 505,-197"/>
<text text-anchor="middle" x="563.5" y="-227.8" font-family="Times,serif" font-size="14.00" fill="#000000">data dim: (32, 80)</text>
<polyline fill="none" stroke="#000000" points="505,-220 622,-220 "/>
<text text-anchor="middle" x="563.5" y="-204.8" font-family="Times,serif" font-size="14.00" fill="#000000">grad dim: (32, 80)</text>
</g>
<!-- 139806236159232&#45;&gt;139806236159424+ -->
<g id="edge26" class="edge">
<title>139806236159232&#45;&gt;139806236159424+</title>
<path fill="none" stroke="#000000" d="M622.306,-237.665C633.6294,-241.0665 645.1437,-244.5254 655.3876,-247.6026"/>
<polygon fill="#000000" stroke="#000000" points="654.5697,-251.0114 665.1539,-250.5363 656.5836,-244.3073 654.5697,-251.0114"/>
</g>
<!-- 139806236159232@&#45;&gt;139806236159232 -->
<g id="edge11" class="edge">
<title>139806236159232@&#45;&gt;139806236159232</title>
<path fill="none" stroke="#000000" d="M464.1374,-217.6436C473.3085,-217.8611 484.0029,-218.1147 494.9107,-218.3734"/>
<polygon fill="#000000" stroke="#000000" points="494.8702,-221.8733 504.9504,-218.6115 495.0362,-214.8753 494.8702,-221.8733"/>
</g>
<!-- 139806236226944 -->
<g id="node32" class="node">
<title>139806236226944</title>
<polygon fill="none" stroke="#000000" points="2231,-141 2231,-187 2348,-187 2348,-141 2231,-141"/>
<text text-anchor="middle" x="2289.5" y="-171.8" font-family="Times,serif" font-size="14.00" fill="#000000">data dim: (32, 10)</text>
<polyline fill="none" stroke="#000000" points="2231,-164 2348,-164 "/>
<text text-anchor="middle" x="2289.5" y="-148.8" font-family="Times,serif" font-size="14.00" fill="#000000">grad dim: (32, 10)</text>
</g>
<!-- 139806236227136tanh -->
<g id="node39" class="node">
<title>139806236227136tanh</title>
<ellipse fill="none" stroke="#000000" cx="2411" cy="-164" rx="27" ry="18"/>
<text text-anchor="middle" x="2411" y="-160.3" font-family="Times,serif" font-size="14.00" fill="#000000">tanh</text>
</g>
<!-- 139806236226944&#45;&gt;139806236227136tanh -->
<g id="edge25" class="edge">
<title>139806236226944&#45;&gt;139806236227136tanh</title>
<path fill="none" stroke="#000000" d="M2348.1146,-164C2356.8066,-164 2365.5569,-164 2373.6526,-164"/>
<polygon fill="#000000" stroke="#000000" points="2373.8583,-167.5001 2383.8583,-164 2373.8582,-160.5001 2373.8583,-167.5001"/>
</g>
<!-- 139806236226944+&#45;&gt;139806236226944 -->
<g id="edge12" class="edge">
<title>139806236226944+&#45;&gt;139806236226944</title>
<path fill="none" stroke="#000000" d="M2195.267,-164C2202.8921,-164 2211.5407,-164 2220.4316,-164"/>
<polygon fill="#000000" stroke="#000000" points="2220.531,-167.5001 2230.5309,-164 2220.5309,-160.5001 2220.531,-167.5001"/>
</g>
<!-- 139807195045264 -->
<g id="node34" class="node">
<title>139807195045264</title>
<polygon fill="none" stroke="#000000" points="1492,-176.5 1492,-245.5 1609,-245.5 1609,-176.5 1492,-176.5"/>
<text text-anchor="middle" x="1550.5" y="-230.3" font-family="Times,serif" font-size="14.00" fill="#000000">Layer2.weight</text>
<polyline fill="none" stroke="#000000" points="1492,-222.5 1609,-222.5 "/>
<text text-anchor="middle" x="1550.5" y="-207.3" font-family="Times,serif" font-size="14.00" fill="#000000">data dim: (10, 20)</text>
<polyline fill="none" stroke="#000000" points="1492,-199.5 1609,-199.5 "/>
<text text-anchor="middle" x="1550.5" y="-184.3" font-family="Times,serif" font-size="14.00" fill="#000000">grad dim: (10, 20)</text>
</g>
<!-- 139807195045264&#45;&gt;139806236226320.T -->
<g id="edge24" class="edge">
<title>139807195045264&#45;&gt;139806236226320.T</title>
<path fill="none" stroke="#000000" d="M1609.1146,-211C1617.8066,-211 1626.5569,-211 1634.6526,-211"/>
<polygon fill="#000000" stroke="#000000" points="1634.8583,-214.5001 1644.8583,-211 1634.8582,-207.5001 1634.8583,-214.5001"/>
</g>
<!-- 139806236159424 -->
<g id="node35" class="node">
<title>139806236159424</title>
<polygon fill="none" stroke="#000000" points="753,-235 753,-281 870,-281 870,-235 753,-235"/>
<text text-anchor="middle" x="811.5" y="-265.8" font-family="Times,serif" font-size="14.00" fill="#000000">data dim: (32, 80)</text>
<polyline fill="none" stroke="#000000" points="753,-258 870,-258 "/>
<text text-anchor="middle" x="811.5" y="-242.8" font-family="Times,serif" font-size="14.00" fill="#000000">grad dim: (32, 80)</text>
</g>
<!-- 139806236159616tanh -->
<g id="node41" class="node">
<title>139806236159616tanh</title>
<ellipse fill="none" stroke="#000000" cx="933" cy="-258" rx="27" ry="18"/>
<text text-anchor="middle" x="933" y="-254.3" font-family="Times,serif" font-size="14.00" fill="#000000">tanh</text>
</g>
<!-- 139806236159424&#45;&gt;139806236159616tanh -->
<g id="edge46" class="edge">
<title>139806236159424&#45;&gt;139806236159616tanh</title>
<path fill="none" stroke="#000000" d="M870.1146,-258C878.8066,-258 887.5569,-258 895.6526,-258"/>
<polygon fill="#000000" stroke="#000000" points="895.8583,-261.5001 905.8583,-258 895.8582,-254.5001 895.8583,-261.5001"/>
</g>
<!-- 139806236159424+&#45;&gt;139806236159424 -->
<g id="edge13" class="edge">
<title>139806236159424+&#45;&gt;139806236159424</title>
<path fill="none" stroke="#000000" d="M717.267,-258C724.8921,-258 733.5407,-258 742.4316,-258"/>
<polygon fill="#000000" stroke="#000000" points="742.531,-261.5001 752.5309,-258 742.5309,-254.5001 742.531,-261.5001"/>
</g>
<!-- 139807195045408 -->
<g id="node37" class="node">
<title>139807195045408</title>
<polygon fill="none" stroke="#000000" points="1738.5,-.5 1738.5,-69.5 1848.5,-69.5 1848.5,-.5 1738.5,-.5"/>
<text text-anchor="middle" x="1793.5" y="-54.3" font-family="Times,serif" font-size="14.00" fill="#000000">Layer2.bias</text>
<polyline fill="none" stroke="#000000" points="1738.5,-46.5 1848.5,-46.5 "/>
<text text-anchor="middle" x="1793.5" y="-31.3" font-family="Times,serif" font-size="14.00" fill="#000000">data dim: (1, 10)</text>
<polyline fill="none" stroke="#000000" points="1738.5,-23.5 1848.5,-23.5 "/>
<text text-anchor="middle" x="1793.5" y="-8.3" font-family="Times,serif" font-size="14.00" fill="#000000">grad dim: (1, 10)</text>
</g>
<!-- 139807195045408&#45;&gt;139806236226752@ -->
<g id="edge27" class="edge">
<title>139807195045408&#45;&gt;139806236226752@</title>
<path fill="none" stroke="#000000" d="M1841.1713,-69.5274C1857.2475,-81.1711 1874.6066,-93.7438 1888.4507,-103.7709"/>
<polygon fill="#000000" stroke="#000000" points="1886.4216,-106.6228 1896.5736,-109.6541 1890.5278,-100.9536 1886.4216,-106.6228"/>
</g>
<!-- 139806236227136 -->
<g id="node38" class="node">
<title>139806236227136</title>
<polygon fill="none" stroke="#000000" points="2474,-129.5 2474,-198.5 2591,-198.5 2591,-129.5 2474,-129.5"/>
<text text-anchor="middle" x="2532.5" y="-183.3" font-family="Times,serif" font-size="14.00" fill="#000000">Layer2_output</text>
<polyline fill="none" stroke="#000000" points="2474,-175.5 2591,-175.5 "/>
<text text-anchor="middle" x="2532.5" y="-160.3" font-family="Times,serif" font-size="14.00" fill="#000000">data dim: (32, 10)</text>
<polyline fill="none" stroke="#000000" points="2474,-152.5 2591,-152.5 "/>
<text text-anchor="middle" x="2532.5" y="-137.3" font-family="Times,serif" font-size="14.00" fill="#000000">grad dim: (32, 10)</text>
</g>
<!-- 139806236227328* -->
<g id="node44" class="node">
<title>139806236227328*</title>
<ellipse fill="none" stroke="#000000" cx="2654" cy="-125" rx="27" ry="18"/>
<text text-anchor="middle" x="2654" y="-121.3" font-family="Times,serif" font-size="14.00" fill="#000000">*</text>
</g>
<!-- 139806236227136&#45;&gt;139806236227328* -->
<g id="edge47" class="edge">
<title>139806236227136&#45;&gt;139806236227328*</title>
<path fill="none" stroke="#000000" d="M2591.1146,-145.1854C2600.9909,-142.0153 2610.9424,-138.821 2619.9235,-135.9381"/>
<polygon fill="#000000" stroke="#000000" points="2621.1435,-139.2225 2629.5953,-132.8336 2619.0041,-132.5574 2621.1435,-139.2225"/>
</g>
<!-- 139806236227136tanh&#45;&gt;139806236227136 -->
<g id="edge14" class="edge">
<title>139806236227136tanh&#45;&gt;139806236227136</title>
<path fill="none" stroke="#000000" d="M2438.267,-164C2445.8921,-164 2454.5407,-164 2463.4316,-164"/>
<polygon fill="#000000" stroke="#000000" points="2463.531,-167.5001 2473.5309,-164 2463.5309,-160.5001 2463.531,-167.5001"/>
</g>
<!-- 139806236159616 -->
<g id="node40" class="node">
<title>139806236159616</title>
<polygon fill="none" stroke="#000000" points="996,-223.5 996,-292.5 1113,-292.5 1113,-223.5 996,-223.5"/>
<text text-anchor="middle" x="1054.5" y="-277.3" font-family="Times,serif" font-size="14.00" fill="#000000">Layer0_output</text>
<polyline fill="none" stroke="#000000" points="996,-269.5 1113,-269.5 "/>
<text text-anchor="middle" x="1054.5" y="-254.3" font-family="Times,serif" font-size="14.00" fill="#000000">data dim: (32, 80)</text>
<polyline fill="none" stroke="#000000" points="996,-246.5 1113,-246.5 "/>
<text text-anchor="middle" x="1054.5" y="-231.3" font-family="Times,serif" font-size="14.00" fill="#000000">grad dim: (32, 80)</text>
</g>
<!-- 139806236159760@ -->
<g id="node46" class="node">
<title>139806236159760@</title>
<ellipse fill="none" stroke="#000000" cx="1176" cy="-258" rx="27" ry="18"/>
<text text-anchor="middle" x="1176" y="-254.3" font-family="Times,serif" font-size="14.00" fill="#000000">@</text>
</g>
<!-- 139806236159616&#45;&gt;139806236159760@ -->
<g id="edge36" class="edge">
<title>139806236159616&#45;&gt;139806236159760@</title>
<path fill="none" stroke="#000000" d="M1113.1146,-258C1121.8066,-258 1130.5569,-258 1138.6526,-258"/>
<polygon fill="#000000" stroke="#000000" points="1138.8583,-261.5001 1148.8583,-258 1138.8582,-254.5001 1138.8583,-261.5001"/>
</g>
<!-- 139806236159616tanh&#45;&gt;139806236159616 -->
<g id="edge15" class="edge">
<title>139806236159616tanh&#45;&gt;139806236159616</title>
<path fill="none" stroke="#000000" d="M960.267,-258C967.8921,-258 976.5407,-258 985.4316,-258"/>
<polygon fill="#000000" stroke="#000000" points="985.531,-261.5001 995.5309,-258 985.5309,-254.5001 985.531,-261.5001"/>
</g>
<!-- 139806236227280 -->
<g id="node42" class="node">
<title>139806236227280</title>
<polygon fill="none" stroke="#000000" points="2488,-64 2488,-110 2577,-110 2577,-64 2488,-64"/>
<text text-anchor="middle" x="2532.5" y="-94.8" font-family="Times,serif" font-size="14.00" fill="#000000">data: &#45;1.0000</text>
<polyline fill="none" stroke="#000000" points="2488,-87 2577,-87 "/>
<text text-anchor="middle" x="2532.5" y="-71.8" font-family="Times,serif" font-size="14.00" fill="#000000">grad: nan</text>
</g>
<!-- 139806236227280&#45;&gt;139806236227328* -->
<g id="edge45" class="edge">
<title>139806236227280&#45;&gt;139806236227328*</title>
<path fill="none" stroke="#000000" d="M2577.0522,-100.934C2591.0843,-105.3227 2606.3602,-110.1003 2619.5755,-114.2335"/>
<polygon fill="#000000" stroke="#000000" points="2618.6361,-117.6068 2629.225,-117.2514 2620.7256,-110.9259 2618.6361,-117.6068"/>
</g>
<!-- 139806236227328 -->
<g id="node43" class="node">
<title>139806236227328</title>
<polygon fill="none" stroke="#000000" points="2717,-102 2717,-148 2834,-148 2834,-102 2717,-102"/>
<text text-anchor="middle" x="2775.5" y="-132.8" font-family="Times,serif" font-size="14.00" fill="#000000">data dim: (32, 10)</text>
<polyline fill="none" stroke="#000000" points="2717,-125 2834,-125 "/>
<text text-anchor="middle" x="2775.5" y="-109.8" font-family="Times,serif" font-size="14.00" fill="#000000">grad dim: (32, 10)</text>
</g>
<!-- 139806236227328&#45;&gt;139806236227520+ -->
<g id="edge32" class="edge">
<title>139806236227328&#45;&gt;139806236227520+</title>
<path fill="none" stroke="#000000" d="M2834.1146,-106.6678C2843.9027,-103.6066 2853.7647,-100.5222 2862.6827,-97.733"/>
<polygon fill="#000000" stroke="#000000" points="2863.7966,-101.0519 2872.296,-94.7264 2861.7071,-94.371 2863.7966,-101.0519"/>
</g>
<!-- 139806236227328*&#45;&gt;139806236227328 -->
<g id="edge16" class="edge">
<title>139806236227328*&#45;&gt;139806236227328</title>
<path fill="none" stroke="#000000" d="M2681.267,-125C2688.8921,-125 2697.5407,-125 2706.4316,-125"/>
<polygon fill="#000000" stroke="#000000" points="2706.531,-128.5001 2716.5309,-125 2706.5309,-121.5001 2706.531,-128.5001"/>
</g>
<!-- 139806236159760 -->
<g id="node45" class="node">
<title>139806236159760</title>
<polygon fill="none" stroke="#000000" points="1239,-226.5 1239,-295.5 1366,-295.5 1366,-226.5 1239,-226.5"/>
<text text-anchor="middle" x="1302.5" y="-280.3" font-family="Times,serif" font-size="14.00" fill="#000000">Layer1_dot_product</text>
<polyline fill="none" stroke="#000000" points="1239,-272.5 1366,-272.5 "/>
<text text-anchor="middle" x="1302.5" y="-257.3" font-family="Times,serif" font-size="14.00" fill="#000000">data dim: (32, 20)</text>
<polyline fill="none" stroke="#000000" points="1239,-249.5 1366,-249.5 "/>
<text text-anchor="middle" x="1302.5" y="-234.3" font-family="Times,serif" font-size="14.00" fill="#000000">grad dim: (32, 20)</text>
</g>
<!-- 139806236159760&#45;&gt;139806236225984+ -->
<g id="edge41" class="edge">
<title>139806236159760&#45;&gt;139806236225984+</title>
<path fill="none" stroke="#000000" d="M1366.1206,-280.1113C1375.8493,-283.0338 1385.5663,-285.9527 1394.3509,-288.5916"/>
<polygon fill="#000000" stroke="#000000" points="1393.5956,-292.0191 1404.1798,-291.5441 1395.6095,-285.3151 1393.5956,-292.0191"/>
</g>
<!-- 139806236159760@&#45;&gt;139806236159760 -->
<g id="edge17" class="edge">
<title>139806236159760@&#45;&gt;139806236159760</title>
<path fill="none" stroke="#000000" d="M1203.1374,-258.6436C1210.7857,-258.825 1219.4934,-259.0315 1228.5007,-259.2451"/>
<polygon fill="#000000" stroke="#000000" points="1228.6769,-262.7501 1238.7571,-259.4883 1228.8429,-255.7521 1228.6769,-262.7501"/>
</g>
<!-- 139806236227520 -->
<g id="node47" class="node">
<title>139806236227520</title>
<polygon fill="none" stroke="#000000" points="2960,-64 2960,-110 3077,-110 3077,-64 2960,-64"/>
<text text-anchor="middle" x="3018.5" y="-94.8" font-family="Times,serif" font-size="14.00" fill="#000000">data dim: (32, 10)</text>
<polyline fill="none" stroke="#000000" points="2960,-87 3077,-87 "/>
<text text-anchor="middle" x="3018.5" y="-71.8" font-family="Times,serif" font-size="14.00" fill="#000000">grad dim: (32, 10)</text>
</g>
<!-- 139806236227520&#45;&gt;139806236227712**2 -->
<g id="edge23" class="edge">
<title>139806236227520&#45;&gt;139806236227712**2</title>
<path fill="none" stroke="#000000" d="M3077.1146,-87C3085.8066,-87 3094.5569,-87 3102.6526,-87"/>
<polygon fill="#000000" stroke="#000000" points="3102.8583,-90.5001 3112.8583,-87 3102.8582,-83.5001 3102.8583,-90.5001"/>
</g>
<!-- 139806236227520+&#45;&gt;139806236227520 -->
<g id="edge18" class="edge">
<title>139806236227520+&#45;&gt;139806236227520</title>
<path fill="none" stroke="#000000" d="M2924.267,-87C2931.8921,-87 2940.5407,-87 2949.4316,-87"/>
<polygon fill="#000000" stroke="#000000" points="2949.531,-90.5001 2959.5309,-87 2949.5309,-83.5001 2949.531,-90.5001"/>
</g>
<!-- 139806236159952 -->
<g id="node49" class="node">
<title>139806236159952</title>
<polygon fill="none" stroke="#000000" points="996,-135.5 996,-204.5 1113,-204.5 1113,-135.5 996,-135.5"/>
<text text-anchor="middle" x="1054.5" y="-189.3" font-family="Times,serif" font-size="14.00" fill="#000000">Layer1.weight.T</text>
<polyline fill="none" stroke="#000000" points="996,-181.5 1113,-181.5 "/>
<text text-anchor="middle" x="1054.5" y="-166.3" font-family="Times,serif" font-size="14.00" fill="#000000">data dim: (80, 20)</text>
<polyline fill="none" stroke="#000000" points="996,-158.5 1113,-158.5 "/>
<text text-anchor="middle" x="1054.5" y="-143.3" font-family="Times,serif" font-size="14.00" fill="#000000">grad dim: (80, 20)</text>
</g>
<!-- 139806236159952&#45;&gt;139806236159760@ -->
<g id="edge21" class="edge">
<title>139806236159952&#45;&gt;139806236159760@</title>
<path fill="none" stroke="#000000" d="M1102.1713,-204.5274C1118.2475,-216.1711 1135.6066,-228.7438 1149.4507,-238.7709"/>
<polygon fill="#000000" stroke="#000000" points="1147.4216,-241.6228 1157.5736,-244.6541 1151.5278,-235.9536 1147.4216,-241.6228"/>
</g>
<!-- 139806236159952.T&#45;&gt;139806236159952 -->
<g id="edge19" class="edge">
<title>139806236159952.T&#45;&gt;139806236159952</title>
<path fill="none" stroke="#000000" d="M960.267,-170C967.8921,-170 976.5407,-170 985.4316,-170"/>
<polygon fill="#000000" stroke="#000000" points="985.531,-173.5001 995.5309,-170 985.5309,-166.5001 985.531,-173.5001"/>
</g>
</g>
</svg>
