<?xml version="1.0" encoding="UTF-8" standalone="no"?>
<!DOCTYPE svg PUBLIC "-//W3C//DTD SVG 1.1//EN"
 "http://www.w3.org/Graphics/SVG/1.1/DTD/svg11.dtd">
<!-- Generated by graphviz version 2.40.1 (20161225.0304)
 -->
<!-- Title: %3 Pages: 1 -->
<svg width="1027pt" height="100pt"
 viewBox="0.00 0.00 1026.79 100.00" xmlns="http://www.w3.org/2000/svg" xmlns:xlink="http://www.w3.org/1999/xlink">
<g id="graph0" class="graph" transform="scale(1 1) rotate(0) translate(4 96)">
<title>%3</title>
<polygon fill="#ffffff" stroke="transparent" points="-4,4 -4,-96 1022.7889,-96 1022.7889,4 -4,4"/>
<!-- 140245920028416 -->
<g id="node1" class="node">
<title>140245920028416</title>
<polygon fill="none" stroke="#000000" points="786.7889,-27.5 786.7889,-63.5 1018.7889,-63.5 1018.7889,-27.5 786.7889,-27.5"/>
<text text-anchor="middle" x="799.7889" y="-41.8" font-family="Times,serif" font-size="14.00" fill="#000000">D</text>
<polyline fill="none" stroke="#000000" points="812.7889,-27.5 812.7889,-63.5 "/>
<text text-anchor="middle" x="863.7889" y="-41.8" font-family="Times,serif" font-size="14.00" fill="#000000">data dim: (1, 1)</text>
<polyline fill="none" stroke="#000000" points="914.7889,-27.5 914.7889,-63.5 "/>
<text text-anchor="middle" x="966.7889" y="-41.8" font-family="Times,serif" font-size="14.00" fill="#000000">grad dim: (1, 1)</text>
</g>
<!-- 140245920028416.sum(dim=all) -->
<g id="node2" class="node">
<title>140245920028416.sum(dim=all)</title>
<ellipse fill="none" stroke="#000000" cx="688.3945" cy="-45.5" rx="62.2891" ry="18"/>
<text text-anchor="middle" x="688.3945" y="-41.8" font-family="Times,serif" font-size="14.00" fill="#000000">.sum(dim=all)</text>
</g>
<!-- 140245920028416.sum(dim=all)&#45;&gt;140245920028416 -->
<g id="edge1" class="edge">
<title>140245920028416.sum(dim=all)&#45;&gt;140245920028416</title>
<path fill="none" stroke="#000000" d="M750.9826,-45.5C759.0665,-45.5 767.5625,-45.5 776.2332,-45.5"/>
<polygon fill="#000000" stroke="#000000" points="776.478,-49.0001 786.478,-45.5 776.4779,-42.0001 776.478,-49.0001"/>
</g>
<!-- 140245992442128 -->
<g id="node3" class="node">
<title>140245992442128</title>
<polygon fill="none" stroke="#000000" points="0,-55.5 0,-91.5 232,-91.5 232,-55.5 0,-55.5"/>
<text text-anchor="middle" x="13" y="-69.8" font-family="Times,serif" font-size="14.00" fill="#000000">A</text>
<polyline fill="none" stroke="#000000" points="26,-55.5 26,-91.5 "/>
<text text-anchor="middle" x="77" y="-69.8" font-family="Times,serif" font-size="14.00" fill="#000000">data dim: (2, 3)</text>
<polyline fill="none" stroke="#000000" points="128,-55.5 128,-91.5 "/>
<text text-anchor="middle" x="180" y="-69.8" font-family="Times,serif" font-size="14.00" fill="#000000">grad dim: (2, 3)</text>
</g>
<!-- 140245992297664+ -->
<g id="node6" class="node">
<title>140245992297664+</title>
<ellipse fill="none" stroke="#000000" cx="295" cy="-45.5" rx="27" ry="18"/>
<text text-anchor="middle" x="295" y="-41.8" font-family="Times,serif" font-size="14.00" fill="#000000">+</text>
</g>
<!-- 140245992442128&#45;&gt;140245992297664+ -->
<g id="edge4" class="edge">
<title>140245992442128&#45;&gt;140245992297664+</title>
<path fill="none" stroke="#000000" d="M231.135,-55.4901C240.8696,-53.9673 250.1623,-52.5137 258.4967,-51.21"/>
<polygon fill="#000000" stroke="#000000" points="259.1632,-54.6484 268.5022,-49.6449 258.0814,-47.7325 259.1632,-54.6484"/>
</g>
<!-- 140245992362672 -->
<g id="node4" class="node">
<title>140245992362672</title>
<polygon fill="none" stroke="#000000" points="0,-.5 0,-36.5 232,-36.5 232,-.5 0,-.5"/>
<text text-anchor="middle" x="13" y="-14.8" font-family="Times,serif" font-size="14.00" fill="#000000">B</text>
<polyline fill="none" stroke="#000000" points="26,-.5 26,-36.5 "/>
<text text-anchor="middle" x="77" y="-14.8" font-family="Times,serif" font-size="14.00" fill="#000000">data dim: (2, 3)</text>
<polyline fill="none" stroke="#000000" points="128,-.5 128,-36.5 "/>
<text text-anchor="middle" x="180" y="-14.8" font-family="Times,serif" font-size="14.00" fill="#000000">grad dim: (2, 3)</text>
</g>
<!-- 140245992362672&#45;&gt;140245992297664+ -->
<g id="edge5" class="edge">
<title>140245992362672&#45;&gt;140245992297664+</title>
<path fill="none" stroke="#000000" d="M232.143,-36.0188C241.5525,-37.4381 250.5297,-38.7922 258.6037,-40.01"/>
<polygon fill="#000000" stroke="#000000" points="258.2476,-43.4959 268.6578,-41.5266 259.2917,-36.5742 258.2476,-43.4959"/>
</g>
<!-- 140245992297664 -->
<g id="node5" class="node">
<title>140245992297664</title>
<polygon fill="none" stroke="#000000" points="358,-27.5 358,-63.5 590,-63.5 590,-27.5 358,-27.5"/>
<text text-anchor="middle" x="371" y="-41.8" font-family="Times,serif" font-size="14.00" fill="#000000">C</text>
<polyline fill="none" stroke="#000000" points="384,-27.5 384,-63.5 "/>
<text text-anchor="middle" x="435" y="-41.8" font-family="Times,serif" font-size="14.00" fill="#000000">data dim: (2, 3)</text>
<polyline fill="none" stroke="#000000" points="486,-27.5 486,-63.5 "/>
<text text-anchor="middle" x="538" y="-41.8" font-family="Times,serif" font-size="14.00" fill="#000000">grad dim: (2, 3)</text>
</g>
<!-- 140245992297664&#45;&gt;140245920028416.sum(dim=all) -->
<g id="edge3" class="edge">
<title>140245992297664&#45;&gt;140245920028416.sum(dim=all)</title>
<path fill="none" stroke="#000000" d="M590.2951,-45.5C598.8777,-45.5 607.3819,-45.5 615.5857,-45.5"/>
<polygon fill="#000000" stroke="#000000" points="615.7996,-49.0001 625.7996,-45.5 615.7996,-42.0001 615.7996,-49.0001"/>
</g>
<!-- 140245992297664+&#45;&gt;140245992297664 -->
<g id="edge2" class="edge">
<title>140245992297664+&#45;&gt;140245992297664</title>
<path fill="none" stroke="#000000" d="M322.1862,-45.5C329.6559,-45.5 338.2751,-45.5 347.5348,-45.5"/>
<polygon fill="#000000" stroke="#000000" points="347.8099,-49.0001 357.8098,-45.5 347.8098,-42.0001 347.8099,-49.0001"/>
</g>
</g>
</svg>
