<?xml version="1.0" encoding="UTF-8" standalone="no"?>
<!DOCTYPE svg PUBLIC "-//W3C//DTD SVG 1.1//EN"
 "http://www.w3.org/Graphics/SVG/1.1/DTD/svg11.dtd">
<!-- Generated by graphviz version 2.40.1 (20161225.0304)
 -->
<!-- Title: %3 Pages: 1 -->
<svg width="2318pt" height="182pt"
 viewBox="0.00 0.00 2317.78 182.00" xmlns="http://www.w3.org/2000/svg" xmlns:xlink="http://www.w3.org/1999/xlink">
<g id="graph0" class="graph" transform="scale(1 1) rotate(0) translate(4 178)">
<title>%3</title>
<polygon fill="#ffffff" stroke="transparent" points="-4,4 -4,-178 2313.7832,-178 2313.7832,4 -4,4"/>
<!-- 139880310052416 -->
<g id="node1" class="node">
<title>139880310052416</title>
<polygon fill="none" stroke="#000000" points="815.9942,-27.5 815.9942,-63.5 1059.9942,-63.5 1059.9942,-27.5 815.9942,-27.5"/>
<text text-anchor="middle" x="828.4942" y="-41.8" font-family="Times,serif" font-size="14.00" fill="#000000">Z</text>
<polyline fill="none" stroke="#000000" points="840.9942,-27.5 840.9942,-63.5 "/>
<text text-anchor="middle" x="895.4942" y="-41.8" font-family="Times,serif" font-size="14.00" fill="#000000">data dim: (32, 1)</text>
<polyline fill="none" stroke="#000000" points="949.9942,-27.5 949.9942,-63.5 "/>
<text text-anchor="middle" x="1004.9942" y="-41.8" font-family="Times,serif" font-size="14.00" fill="#000000">grad dim: (32, 1)</text>
</g>
<!-- 139879351679680+ -->
<g id="node5" class="node">
<title>139879351679680+</title>
<ellipse fill="none" stroke="#000000" cx="1136.9942" cy="-72.5" rx="27" ry="18"/>
<text text-anchor="middle" x="1136.9942" y="-68.8" font-family="Times,serif" font-size="14.00" fill="#000000">+</text>
</g>
<!-- 139880310052416&#45;&gt;139879351679680+ -->
<g id="edge15" class="edge">
<title>139880310052416&#45;&gt;139879351679680+</title>
<path fill="none" stroke="#000000" d="M1060.0556,-62.0611C1074.4694,-64.0167 1088.2163,-65.8819 1099.9983,-67.4805"/>
<polygon fill="#000000" stroke="#000000" points="1099.8491,-70.9922 1110.2289,-68.8685 1100.7903,-64.0557 1099.8491,-70.9922"/>
</g>
<!-- 139880310052416ReLU -->
<g id="node2" class="node">
<title>139880310052416ReLU</title>
<ellipse fill="none" stroke="#000000" cx="733.4971" cy="-45.5" rx="32.4942" ry="18"/>
<text text-anchor="middle" x="733.4971" y="-41.8" font-family="Times,serif" font-size="14.00" fill="#000000">ReLU</text>
</g>
<!-- 139880310052416ReLU&#45;&gt;139880310052416 -->
<g id="edge1" class="edge">
<title>139880310052416ReLU&#45;&gt;139880310052416</title>
<path fill="none" stroke="#000000" d="M766.3531,-45.5C777.7281,-45.5 791.2726,-45.5 805.6924,-45.5"/>
<polygon fill="#000000" stroke="#000000" points="805.7992,-49.0001 815.7992,-45.5 805.7991,-42.0001 805.7992,-49.0001"/>
</g>
<!-- 139880310001040 -->
<g id="node3" class="node">
<title>139880310001040</title>
<polygon fill="none" stroke="#000000" points="4.5,-55.5 4.5,-91.5 267.5,-91.5 267.5,-55.5 4.5,-55.5"/>
<text text-anchor="middle" x="19.5" y="-69.8" font-family="Times,serif" font-size="14.00" fill="#000000">W</text>
<polyline fill="none" stroke="#000000" points="34.5,-55.5 34.5,-91.5 "/>
<text text-anchor="middle" x="92.5" y="-69.8" font-family="Times,serif" font-size="14.00" fill="#000000">data dim: (784, 1)</text>
<polyline fill="none" stroke="#000000" points="150.5,-55.5 150.5,-91.5 "/>
<text text-anchor="middle" x="209" y="-69.8" font-family="Times,serif" font-size="14.00" fill="#000000">grad dim: (784, 1)</text>
</g>
<!-- 139880310052224@ -->
<g id="node12" class="node">
<title>139880310052224@</title>
<ellipse fill="none" stroke="#000000" cx="335" cy="-45.5" rx="27" ry="18"/>
<text text-anchor="middle" x="335" y="-41.8" font-family="Times,serif" font-size="14.00" fill="#000000">@</text>
</g>
<!-- 139880310001040&#45;&gt;139880310052224@ -->
<g id="edge7" class="edge">
<title>139880310001040&#45;&gt;139880310052224@</title>
<path fill="none" stroke="#000000" d="M263.9992,-55.4901C276.3187,-53.7567 288.0015,-52.1129 298.2009,-50.6778"/>
<polygon fill="#000000" stroke="#000000" points="298.8425,-54.1221 308.2572,-49.2628 297.8671,-47.1903 298.8425,-54.1221"/>
</g>
<!-- 139879351679680 -->
<g id="node4" class="node">
<title>139879351679680</title>
<polygon fill="none" stroke="#000000" points="1199.9942,-54.5 1199.9942,-90.5 1467.9942,-90.5 1467.9942,-54.5 1199.9942,-54.5"/>
<text text-anchor="middle" x="1224.4942" y="-68.8" font-family="Times,serif" font-size="14.00" fill="#000000">losses</text>
<polyline fill="none" stroke="#000000" points="1248.9942,-54.5 1248.9942,-90.5 "/>
<text text-anchor="middle" x="1303.4942" y="-68.8" font-family="Times,serif" font-size="14.00" fill="#000000">data dim: (32, 1)</text>
<polyline fill="none" stroke="#000000" points="1357.9942,-54.5 1357.9942,-90.5 "/>
<text text-anchor="middle" x="1412.9942" y="-68.8" font-family="Times,serif" font-size="14.00" fill="#000000">grad dim: (32, 1)</text>
</g>
<!-- 139879351680400**2 -->
<g id="node14" class="node">
<title>139879351680400**2</title>
<ellipse fill="none" stroke="#000000" cx="1530.9942" cy="-72.5" rx="27" ry="18"/>
<text text-anchor="middle" x="1530.9942" y="-68.8" font-family="Times,serif" font-size="14.00" fill="#000000">**2</text>
</g>
<!-- 139879351679680&#45;&gt;139879351680400**2 -->
<g id="edge12" class="edge">
<title>139879351679680&#45;&gt;139879351680400**2</title>
<path fill="none" stroke="#000000" d="M1468.1206,-72.5C1477.3007,-72.5 1486.0037,-72.5 1493.8449,-72.5"/>
<polygon fill="#000000" stroke="#000000" points="1493.967,-76.0001 1503.967,-72.5 1493.967,-69.0001 1493.967,-76.0001"/>
</g>
<!-- 139879351679680+&#45;&gt;139879351679680 -->
<g id="edge2" class="edge">
<title>139879351679680+&#45;&gt;139879351679680</title>
<path fill="none" stroke="#000000" d="M1164.3862,-72.5C1171.7621,-72.5 1180.277,-72.5 1189.4835,-72.5"/>
<polygon fill="#000000" stroke="#000000" points="1189.724,-76.0001 1199.7239,-72.5 1189.7239,-69.0001 1189.724,-76.0001"/>
</g>
<!-- 139879351678192 -->
<g id="node6" class="node">
<title>139879351678192</title>
<polygon fill="none" stroke="#000000" points="801.9942,-82.5 801.9942,-118.5 1073.9942,-118.5 1073.9942,-82.5 801.9942,-82.5"/>
<text text-anchor="middle" x="828.4942" y="-96.8" font-family="Times,serif" font-size="14.00" fill="#000000">&#45;labels</text>
<polyline fill="none" stroke="#000000" points="854.9942,-82.5 854.9942,-118.5 "/>
<text text-anchor="middle" x="909.4942" y="-96.8" font-family="Times,serif" font-size="14.00" fill="#000000">data dim: (32, 1)</text>
<polyline fill="none" stroke="#000000" points="963.9942,-82.5 963.9942,-118.5 "/>
<text text-anchor="middle" x="1018.9942" y="-96.8" font-family="Times,serif" font-size="14.00" fill="#000000">grad dim: (32, 1)</text>
</g>
<!-- 139879351678192&#45;&gt;139879351679680+ -->
<g id="edge14" class="edge">
<title>139879351678192&#45;&gt;139879351679680+</title>
<path fill="none" stroke="#000000" d="M1065.9935,-82.4901C1078.3129,-80.7567 1089.9958,-79.1129 1100.1951,-77.6778"/>
<polygon fill="#000000" stroke="#000000" points="1100.8367,-81.1221 1110.2515,-76.2628 1099.8613,-74.1903 1100.8367,-81.1221"/>
</g>
<!-- 139879351678192* -->
<g id="node7" class="node">
<title>139879351678192*</title>
<ellipse fill="none" stroke="#000000" cx="733.4971" cy="-100.5" rx="27" ry="18"/>
<text text-anchor="middle" x="733.4971" y="-96.8" font-family="Times,serif" font-size="14.00" fill="#000000">*</text>
</g>
<!-- 139879351678192*&#45;&gt;139879351678192 -->
<g id="edge3" class="edge">
<title>139879351678192*&#45;&gt;139879351678192</title>
<path fill="none" stroke="#000000" d="M760.6528,-100.5C769.4761,-100.5 779.9621,-100.5 791.3613,-100.5"/>
<polygon fill="#000000" stroke="#000000" points="791.5951,-104.0001 801.595,-100.5 791.595,-97.0001 791.5951,-104.0001"/>
</g>
<!-- 139880382466320 -->
<g id="node8" class="node">
<title>139880382466320</title>
<polygon fill="none" stroke="#000000" points="0,-.5 0,-36.5 272,-36.5 272,-.5 0,-.5"/>
<text text-anchor="middle" x="13" y="-14.8" font-family="Times,serif" font-size="14.00" fill="#000000">X</text>
<polyline fill="none" stroke="#000000" points="26,-.5 26,-36.5 "/>
<text text-anchor="middle" x="87" y="-14.8" font-family="Times,serif" font-size="14.00" fill="#000000">data dim: (32, 784)</text>
<polyline fill="none" stroke="#000000" points="148,-.5 148,-36.5 "/>
<text text-anchor="middle" x="210" y="-14.8" font-family="Times,serif" font-size="14.00" fill="#000000">grad dim: (32, 784)</text>
</g>
<!-- 139880382466320&#45;&gt;139880310052224@ -->
<g id="edge13" class="edge">
<title>139880382466320&#45;&gt;139880310052224@</title>
<path fill="none" stroke="#000000" d="M268.7359,-36.5094C279.3946,-37.9555 289.4784,-39.3237 298.4143,-40.5361"/>
<polygon fill="#000000" stroke="#000000" points="297.9629,-44.0068 308.3427,-41.8832 298.9041,-37.0704 297.9629,-44.0068"/>
</g>
<!-- 139879351678240 -->
<g id="node9" class="node">
<title>139879351678240</title>
<polygon fill="none" stroke="#000000" points="414.5,-137.5 414.5,-173.5 648.5,-173.5 648.5,-137.5 414.5,-137.5"/>
<text text-anchor="middle" x="428.5" y="-151.8" font-family="Times,serif" font-size="14.00" fill="#000000">&#45;1</text>
<polyline fill="none" stroke="#000000" points="442.5,-137.5 442.5,-173.5 "/>
<text text-anchor="middle" x="493.5" y="-151.8" font-family="Times,serif" font-size="14.00" fill="#000000">data dim: (1, 1)</text>
<polyline fill="none" stroke="#000000" points="544.5,-137.5 544.5,-173.5 "/>
<text text-anchor="middle" x="596.5" y="-151.8" font-family="Times,serif" font-size="14.00" fill="#000000">grad dim: (1, 1)</text>
</g>
<!-- 139879351678240&#45;&gt;139879351678192* -->
<g id="edge8" class="edge">
<title>139879351678240&#45;&gt;139879351678192*</title>
<path fill="none" stroke="#000000" d="M631.5234,-137.4166C642.892,-134.7279 654.2493,-131.7527 665,-128.5 677.1736,-124.8168 690.1755,-119.7949 701.5445,-115.0205"/>
<polygon fill="#000000" stroke="#000000" points="703.2513,-118.0964 711.0532,-110.9284 700.4841,-111.6665 703.2513,-118.0964"/>
</g>
<!-- 139880310051696 -->
<g id="node10" class="node">
<title>139880310051696</title>
<polygon fill="none" stroke="#000000" points="398,-82.5 398,-118.5 665,-118.5 665,-82.5 398,-82.5"/>
<text text-anchor="middle" x="422" y="-96.8" font-family="Times,serif" font-size="14.00" fill="#000000">labels</text>
<polyline fill="none" stroke="#000000" points="446,-82.5 446,-118.5 "/>
<text text-anchor="middle" x="500.5" y="-96.8" font-family="Times,serif" font-size="14.00" fill="#000000">data dim: (32, 1)</text>
<polyline fill="none" stroke="#000000" points="555,-82.5 555,-118.5 "/>
<text text-anchor="middle" x="610" y="-96.8" font-family="Times,serif" font-size="14.00" fill="#000000">grad dim: (32, 1)</text>
</g>
<!-- 139880310051696&#45;&gt;139879351678192* -->
<g id="edge11" class="edge">
<title>139880310051696&#45;&gt;139879351678192*</title>
<path fill="none" stroke="#000000" d="M665.1101,-100.5C676.3045,-100.5 686.9002,-100.5 696.2598,-100.5"/>
<polygon fill="#000000" stroke="#000000" points="696.268,-104.0001 706.268,-100.5 696.268,-97.0001 696.268,-104.0001"/>
</g>
<!-- 139880310052224 -->
<g id="node11" class="node">
<title>139880310052224</title>
<polygon fill="none" stroke="#000000" points="409,-27.5 409,-63.5 654,-63.5 654,-27.5 409,-27.5"/>
<text text-anchor="middle" x="422" y="-41.8" font-family="Times,serif" font-size="14.00" fill="#000000">Y</text>
<polyline fill="none" stroke="#000000" points="435,-27.5 435,-63.5 "/>
<text text-anchor="middle" x="489.5" y="-41.8" font-family="Times,serif" font-size="14.00" fill="#000000">data dim: (32, 1)</text>
<polyline fill="none" stroke="#000000" points="544,-27.5 544,-63.5 "/>
<text text-anchor="middle" x="599" y="-41.8" font-family="Times,serif" font-size="14.00" fill="#000000">grad dim: (32, 1)</text>
</g>
<!-- 139880310052224&#45;&gt;139880310052416ReLU -->
<g id="edge10" class="edge">
<title>139880310052224&#45;&gt;139880310052416ReLU</title>
<path fill="none" stroke="#000000" d="M654.2423,-45.5C667.139,-45.5 679.5392,-45.5 690.5467,-45.5"/>
<polygon fill="#000000" stroke="#000000" points="690.6443,-49.0001 700.6443,-45.5 690.6442,-42.0001 690.6443,-49.0001"/>
</g>
<!-- 139880310052224@&#45;&gt;139880310052224 -->
<g id="edge4" class="edge">
<title>139880310052224@&#45;&gt;139880310052224</title>
<path fill="none" stroke="#000000" d="M362.3225,-45.5C372.6752,-45.5 385.2776,-45.5 398.8864,-45.5"/>
<polygon fill="#000000" stroke="#000000" points="398.9558,-49.0001 408.9557,-45.5 398.9557,-42.0001 398.9558,-49.0001"/>
</g>
<!-- 139879351680400 -->
<g id="node13" class="node">
<title>139879351680400</title>
<polygon fill="none" stroke="#000000" points="1593.9942,-54.5 1593.9942,-90.5 1881.9942,-90.5 1881.9942,-54.5 1593.9942,-54.5"/>
<text text-anchor="middle" x="1628.4942" y="-68.8" font-family="Times,serif" font-size="14.00" fill="#000000">losses**2</text>
<polyline fill="none" stroke="#000000" points="1662.9942,-54.5 1662.9942,-90.5 "/>
<text text-anchor="middle" x="1717.4942" y="-68.8" font-family="Times,serif" font-size="14.00" fill="#000000">data dim: (32, 1)</text>
<polyline fill="none" stroke="#000000" points="1771.9942,-54.5 1771.9942,-90.5 "/>
<text text-anchor="middle" x="1826.9942" y="-68.8" font-family="Times,serif" font-size="14.00" fill="#000000">grad dim: (32, 1)</text>
</g>
<!-- 139879351677904.sum(dim=all) -->
<g id="node16" class="node">
<title>139879351677904.sum(dim=all)</title>
<ellipse fill="none" stroke="#000000" cx="1980.3887" cy="-72.5" rx="62.2891" ry="18"/>
<text text-anchor="middle" x="1980.3887" y="-68.8" font-family="Times,serif" font-size="14.00" fill="#000000">.sum(dim=all)</text>
</g>
<!-- 139879351680400&#45;&gt;139879351677904.sum(dim=all) -->
<g id="edge9" class="edge">
<title>139879351680400&#45;&gt;139879351677904.sum(dim=all)</title>
<path fill="none" stroke="#000000" d="M1882.147,-72.5C1890.868,-72.5 1899.4244,-72.5 1907.6266,-72.5"/>
<polygon fill="#000000" stroke="#000000" points="1907.8123,-76.0001 1917.8122,-72.5 1907.8122,-69.0001 1907.8123,-76.0001"/>
</g>
<!-- 139879351680400**2&#45;&gt;139879351680400 -->
<g id="edge5" class="edge">
<title>139879351680400**2&#45;&gt;139879351680400</title>
<path fill="none" stroke="#000000" d="M1558.0559,-72.5C1565.5388,-72.5 1574.2261,-72.5 1583.6635,-72.5"/>
<polygon fill="#000000" stroke="#000000" points="1583.7507,-76.0001 1593.7507,-72.5 1583.7507,-69.0001 1583.7507,-76.0001"/>
</g>
<!-- 139879351677904 -->
<g id="node15" class="node">
<title>139879351677904</title>
<polygon fill="none" stroke="#000000" points="2078.7832,-54.5 2078.7832,-90.5 2309.7832,-90.5 2309.7832,-54.5 2078.7832,-54.5"/>
<text text-anchor="middle" x="2091.2832" y="-68.8" font-family="Times,serif" font-size="14.00" fill="#000000">L</text>
<polyline fill="none" stroke="#000000" points="2103.7832,-54.5 2103.7832,-90.5 "/>
<text text-anchor="middle" x="2154.7832" y="-68.8" font-family="Times,serif" font-size="14.00" fill="#000000">data dim: (1, 1)</text>
<polyline fill="none" stroke="#000000" points="2205.7832,-54.5 2205.7832,-90.5 "/>
<text text-anchor="middle" x="2257.7832" y="-68.8" font-family="Times,serif" font-size="14.00" fill="#000000">grad dim: (1, 1)</text>
</g>
<!-- 139879351677904.sum(dim=all)&#45;&gt;139879351677904 -->
<g id="edge6" class="edge">
<title>139879351677904.sum(dim=all)&#45;&gt;139879351677904</title>
<path fill="none" stroke="#000000" d="M2042.8308,-72.5C2051.0732,-72.5 2059.7449,-72.5 2068.5932,-72.5"/>
<polygon fill="#000000" stroke="#000000" points="2068.6449,-76.0001 2078.6449,-72.5 2068.6448,-69.0001 2068.6449,-76.0001"/>
</g>
</g>
</svg>
