<?xml version="1.0" encoding="UTF-8" standalone="no"?>
<!DOCTYPE svg PUBLIC "-//W3C//DTD SVG 1.1//EN"
 "http://www.w3.org/Graphics/SVG/1.1/DTD/svg11.dtd">
<!-- Generated by graphviz version 2.40.1 (20161225.0304)
 -->
<!-- Title: %3 Pages: 1 -->
<svg width="1388pt" height="298pt"
 viewBox="0.00 0.00 1387.78 298.00" xmlns="http://www.w3.org/2000/svg" xmlns:xlink="http://www.w3.org/1999/xlink">
<g id="graph0" class="graph" transform="scale(1 1) rotate(0) translate(4 294)">
<title>%3</title>
<polygon fill="#ffffff" stroke="transparent" points="-4,4 -4,-294 1383.7832,-294 1383.7832,4 -4,4"/>
<!-- 140362860582512 -->
<g id="node1" class="node">
<title>140362860582512</title>
<polygon fill="none" stroke="#000000" points="0,-220.5 0,-289.5 124,-289.5 124,-220.5 0,-220.5"/>
<text text-anchor="middle" x="62" y="-274.3" font-family="Times,serif" font-size="14.00" fill="#000000">X</text>
<polyline fill="none" stroke="#000000" points="0,-266.5 124,-266.5 "/>
<text text-anchor="middle" x="62" y="-251.3" font-family="Times,serif" font-size="14.00" fill="#000000">data dim: (32, 784)</text>
<polyline fill="none" stroke="#000000" points="0,-243.5 124,-243.5 "/>
<text text-anchor="middle" x="62" y="-228.3" font-family="Times,serif" font-size="14.00" fill="#000000">grad dim: (32, 784)</text>
</g>
<!-- 140361829940048@ -->
<g id="node6" class="node">
<title>140361829940048@</title>
<ellipse fill="none" stroke="#000000" cx="187" cy="-211" rx="27" ry="18"/>
<text text-anchor="middle" x="187" y="-207.3" font-family="Times,serif" font-size="14.00" fill="#000000">@</text>
</g>
<!-- 140362860582512&#45;&gt;140361829940048@ -->
<g id="edge10" class="edge">
<title>140362860582512&#45;&gt;140361829940048@</title>
<path fill="none" stroke="#000000" d="M124.1338,-233.1289C134.1949,-229.5874 144.2688,-226.0414 153.3123,-222.8581"/>
<polygon fill="#000000" stroke="#000000" points="154.7588,-226.0595 163.0293,-219.4377 152.4345,-219.4566 154.7588,-226.0595"/>
</g>
<!-- 140361829938368 -->
<g id="node2" class="node">
<title>140361829938368</title>
<polygon fill="none" stroke="#000000" points="1275.7832,-132.5 1275.7832,-201.5 1379.7832,-201.5 1379.7832,-132.5 1275.7832,-132.5"/>
<text text-anchor="middle" x="1327.7832" y="-186.3" font-family="Times,serif" font-size="14.00" fill="#000000">L</text>
<polyline fill="none" stroke="#000000" points="1275.7832,-178.5 1379.7832,-178.5 "/>
<text text-anchor="middle" x="1327.7832" y="-163.3" font-family="Times,serif" font-size="14.00" fill="#000000">data dim: (1, 1)</text>
<polyline fill="none" stroke="#000000" points="1275.7832,-155.5 1379.7832,-155.5 "/>
<text text-anchor="middle" x="1327.7832" y="-140.3" font-family="Times,serif" font-size="14.00" fill="#000000">grad dim: (1, 1)</text>
</g>
<!-- 140361829938368.sum(dim=all) -->
<g id="node3" class="node">
<title>140361829938368.sum(dim=all)</title>
<ellipse fill="none" stroke="#000000" cx="1177.3887" cy="-167" rx="62.2891" ry="18"/>
<text text-anchor="middle" x="1177.3887" y="-163.3" font-family="Times,serif" font-size="14.00" fill="#000000">.sum(dim=all)</text>
</g>
<!-- 140361829938368.sum(dim=all)&#45;&gt;140361829938368 -->
<g id="edge1" class="edge">
<title>140361829938368.sum(dim=all)&#45;&gt;140361829938368</title>
<path fill="none" stroke="#000000" d="M1239.8629,-167C1248.3546,-167 1257.0691,-167 1265.5564,-167"/>
<polygon fill="#000000" stroke="#000000" points="1265.766,-170.5001 1275.7659,-167 1265.7659,-163.5001 1265.766,-170.5001"/>
</g>
<!-- 140361829940432 -->
<g id="node4" class="node">
<title>140361829940432</title>
<polygon fill="none" stroke="#000000" points="253,-88.5 253,-157.5 357,-157.5 357,-88.5 253,-88.5"/>
<text text-anchor="middle" x="305" y="-142.3" font-family="Times,serif" font-size="14.00" fill="#000000">&#45;1</text>
<polyline fill="none" stroke="#000000" points="253,-134.5 357,-134.5 "/>
<text text-anchor="middle" x="305" y="-119.3" font-family="Times,serif" font-size="14.00" fill="#000000">data dim: (1, 1)</text>
<polyline fill="none" stroke="#000000" points="253,-111.5 357,-111.5 "/>
<text text-anchor="middle" x="305" y="-96.3" font-family="Times,serif" font-size="14.00" fill="#000000">grad dim: (1, 1)</text>
</g>
<!-- 140361829940624* -->
<g id="node11" class="node">
<title>140361829940624*</title>
<ellipse fill="none" stroke="#000000" cx="428.4971" cy="-123" rx="27" ry="18"/>
<text text-anchor="middle" x="428.4971" y="-119.3" font-family="Times,serif" font-size="14.00" fill="#000000">*</text>
</g>
<!-- 140361829940432&#45;&gt;140361829940624* -->
<g id="edge12" class="edge">
<title>140361829940432&#45;&gt;140361829940624*</title>
<path fill="none" stroke="#000000" d="M357.016,-123C368.486,-123 380.4156,-123 391.1677,-123"/>
<polygon fill="#000000" stroke="#000000" points="391.4668,-126.5001 401.4667,-123 391.4667,-119.5001 391.4668,-126.5001"/>
</g>
<!-- 140361829940048 -->
<g id="node5" class="node">
<title>140361829940048</title>
<polygon fill="none" stroke="#000000" points="250,-176.5 250,-245.5 360,-245.5 360,-176.5 250,-176.5"/>
<text text-anchor="middle" x="305" y="-230.3" font-family="Times,serif" font-size="14.00" fill="#000000">dot_product</text>
<polyline fill="none" stroke="#000000" points="250,-222.5 360,-222.5 "/>
<text text-anchor="middle" x="305" y="-207.3" font-family="Times,serif" font-size="14.00" fill="#000000">data dim: (32, 1)</text>
<polyline fill="none" stroke="#000000" points="250,-199.5 360,-199.5 "/>
<text text-anchor="middle" x="305" y="-184.3" font-family="Times,serif" font-size="14.00" fill="#000000">grad dim: (32, 1)</text>
</g>
<!-- 140361829940144ReLU -->
<g id="node13" class="node">
<title>140361829940144ReLU</title>
<ellipse fill="none" stroke="#000000" cx="428.4971" cy="-211" rx="32.4942" ry="18"/>
<text text-anchor="middle" x="428.4971" y="-207.3" font-family="Times,serif" font-size="14.00" fill="#000000">ReLU</text>
</g>
<!-- 140361829940048&#45;&gt;140361829940144ReLU -->
<g id="edge15" class="edge">
<title>140361829940048&#45;&gt;140361829940144ReLU</title>
<path fill="none" stroke="#000000" d="M360.2467,-211C368.8264,-211 377.5754,-211 385.8212,-211"/>
<polygon fill="#000000" stroke="#000000" points="385.9463,-214.5001 395.9462,-211 385.9462,-207.5001 385.9463,-214.5001"/>
</g>
<!-- 140361829940048@&#45;&gt;140361829940048 -->
<g id="edge2" class="edge">
<title>140361829940048@&#45;&gt;140361829940048</title>
<path fill="none" stroke="#000000" d="M214.0716,-211C221.7837,-211 230.5375,-211 239.4936,-211"/>
<polygon fill="#000000" stroke="#000000" points="239.6468,-214.5001 249.6467,-211 239.6467,-207.5001 239.6468,-214.5001"/>
</g>
<!-- 140361829941104 -->
<g id="node7" class="node">
<title>140361829941104</title>
<polygon fill="none" stroke="#000000" points="732.9942,-132.5 732.9942,-201.5 842.9942,-201.5 842.9942,-132.5 732.9942,-132.5"/>
<text text-anchor="middle" x="787.9942" y="-186.3" font-family="Times,serif" font-size="14.00" fill="#000000">losses</text>
<polyline fill="none" stroke="#000000" points="732.9942,-178.5 842.9942,-178.5 "/>
<text text-anchor="middle" x="787.9942" y="-163.3" font-family="Times,serif" font-size="14.00" fill="#000000">data dim: (32, 1)</text>
<polyline fill="none" stroke="#000000" points="732.9942,-155.5 842.9942,-155.5 "/>
<text text-anchor="middle" x="787.9942" y="-140.3" font-family="Times,serif" font-size="14.00" fill="#000000">grad dim: (32, 1)</text>
</g>
<!-- 140361829941200**2 -->
<g id="node16" class="node">
<title>140361829941200**2</title>
<ellipse fill="none" stroke="#000000" cx="905.9942" cy="-167" rx="27" ry="18"/>
<text text-anchor="middle" x="905.9942" y="-163.3" font-family="Times,serif" font-size="14.00" fill="#000000">**2</text>
</g>
<!-- 140361829941104&#45;&gt;140361829941200**2 -->
<g id="edge9" class="edge">
<title>140361829941104&#45;&gt;140361829941200**2</title>
<path fill="none" stroke="#000000" d="M843.1938,-167C851.7853,-167 860.4847,-167 868.5592,-167"/>
<polygon fill="#000000" stroke="#000000" points="868.7525,-170.5001 878.7525,-167 868.7524,-163.5001 868.7525,-170.5001"/>
</g>
<!-- 140361829941104+ -->
<g id="node8" class="node">
<title>140361829941104+</title>
<ellipse fill="none" stroke="#000000" cx="669.9942" cy="-167" rx="27" ry="18"/>
<text text-anchor="middle" x="669.9942" y="-163.3" font-family="Times,serif" font-size="14.00" fill="#000000">+</text>
</g>
<!-- 140361829941104+&#45;&gt;140361829941104 -->
<g id="edge3" class="edge">
<title>140361829941104+&#45;&gt;140361829941104</title>
<path fill="none" stroke="#000000" d="M697.0658,-167C704.778,-167 713.5317,-167 722.4879,-167"/>
<polygon fill="#000000" stroke="#000000" points="722.641,-170.5001 732.641,-167 722.6409,-163.5001 722.641,-170.5001"/>
</g>
<!-- 140362788312448 -->
<g id="node9" class="node">
<title>140362788312448</title>
<polygon fill="none" stroke="#000000" points="250,-.5 250,-69.5 360,-69.5 360,-.5 250,-.5"/>
<text text-anchor="middle" x="305" y="-54.3" font-family="Times,serif" font-size="14.00" fill="#000000">Y</text>
<polyline fill="none" stroke="#000000" points="250,-46.5 360,-46.5 "/>
<text text-anchor="middle" x="305" y="-31.3" font-family="Times,serif" font-size="14.00" fill="#000000">data dim: (32, 1)</text>
<polyline fill="none" stroke="#000000" points="250,-23.5 360,-23.5 "/>
<text text-anchor="middle" x="305" y="-8.3" font-family="Times,serif" font-size="14.00" fill="#000000">grad dim: (32, 1)</text>
</g>
<!-- 140362788312448&#45;&gt;140361829940624* -->
<g id="edge14" class="edge">
<title>140362788312448&#45;&gt;140361829940624*</title>
<path fill="none" stroke="#000000" d="M353.4549,-69.5274C369.7954,-81.1711 387.4397,-93.7438 401.5115,-103.7709"/>
<polygon fill="#000000" stroke="#000000" points="399.5928,-106.7014 409.7678,-109.6541 403.655,-101.0006 399.5928,-106.7014"/>
</g>
<!-- 140361829940624 -->
<g id="node10" class="node">
<title>140361829940624</title>
<polygon fill="none" stroke="#000000" points="496.9942,-88.5 496.9942,-157.5 606.9942,-157.5 606.9942,-88.5 496.9942,-88.5"/>
<text text-anchor="middle" x="551.9942" y="-142.3" font-family="Times,serif" font-size="14.00" fill="#000000">&#45;Y</text>
<polyline fill="none" stroke="#000000" points="496.9942,-134.5 606.9942,-134.5 "/>
<text text-anchor="middle" x="551.9942" y="-119.3" font-family="Times,serif" font-size="14.00" fill="#000000">data dim: (32, 1)</text>
<polyline fill="none" stroke="#000000" points="496.9942,-111.5 606.9942,-111.5 "/>
<text text-anchor="middle" x="551.9942" y="-96.3" font-family="Times,serif" font-size="14.00" fill="#000000">grad dim: (32, 1)</text>
</g>
<!-- 140361829940624&#45;&gt;140361829941104+ -->
<g id="edge7" class="edge">
<title>140361829940624&#45;&gt;140361829941104+</title>
<path fill="none" stroke="#000000" d="M607.1938,-143.5829C617.3252,-147.3607 627.6066,-151.1944 636.8364,-154.6361"/>
<polygon fill="#000000" stroke="#000000" points="635.7895,-157.9811 646.3822,-158.1955 638.2352,-151.4222 635.7895,-157.9811"/>
</g>
<!-- 140361829940624*&#45;&gt;140361829940624 -->
<g id="edge4" class="edge">
<title>140361829940624*&#45;&gt;140361829940624</title>
<path fill="none" stroke="#000000" d="M455.5991,-123C464.8949,-123 475.7396,-123 486.7332,-123"/>
<polygon fill="#000000" stroke="#000000" points="486.8312,-126.5001 496.8312,-123 486.8311,-119.5001 486.8312,-126.5001"/>
</g>
<!-- 140361829940144 -->
<g id="node12" class="node">
<title>140361829940144</title>
<polygon fill="none" stroke="#000000" points="496.9942,-176.5 496.9942,-245.5 606.9942,-245.5 606.9942,-176.5 496.9942,-176.5"/>
<text text-anchor="middle" x="551.9942" y="-230.3" font-family="Times,serif" font-size="14.00" fill="#000000">Z</text>
<polyline fill="none" stroke="#000000" points="496.9942,-222.5 606.9942,-222.5 "/>
<text text-anchor="middle" x="551.9942" y="-207.3" font-family="Times,serif" font-size="14.00" fill="#000000">data dim: (32, 1)</text>
<polyline fill="none" stroke="#000000" points="496.9942,-199.5 606.9942,-199.5 "/>
<text text-anchor="middle" x="551.9942" y="-184.3" font-family="Times,serif" font-size="14.00" fill="#000000">grad dim: (32, 1)</text>
</g>
<!-- 140361829940144&#45;&gt;140361829941104+ -->
<g id="edge11" class="edge">
<title>140361829940144&#45;&gt;140361829941104+</title>
<path fill="none" stroke="#000000" d="M607.1938,-190.4171C617.3252,-186.6393 627.6066,-182.8056 636.8364,-179.3639"/>
<polygon fill="#000000" stroke="#000000" points="638.2352,-182.5778 646.3822,-175.8045 635.7895,-176.0189 638.2352,-182.5778"/>
</g>
<!-- 140361829940144ReLU&#45;&gt;140361829940144 -->
<g id="edge5" class="edge">
<title>140361829940144ReLU&#45;&gt;140361829940144</title>
<path fill="none" stroke="#000000" d="M461.2678,-211C469.0747,-211 477.6807,-211 486.3894,-211"/>
<polygon fill="#000000" stroke="#000000" points="486.6181,-214.5001 496.6181,-211 486.6181,-207.5001 486.6181,-214.5001"/>
</g>
<!-- 140362788257168 -->
<g id="node14" class="node">
<title>140362788257168</title>
<polygon fill="none" stroke="#000000" points="3.5,-132.5 3.5,-201.5 120.5,-201.5 120.5,-132.5 3.5,-132.5"/>
<text text-anchor="middle" x="62" y="-186.3" font-family="Times,serif" font-size="14.00" fill="#000000">W</text>
<polyline fill="none" stroke="#000000" points="3.5,-178.5 120.5,-178.5 "/>
<text text-anchor="middle" x="62" y="-163.3" font-family="Times,serif" font-size="14.00" fill="#000000">data dim: (784, 1)</text>
<polyline fill="none" stroke="#000000" points="3.5,-155.5 120.5,-155.5 "/>
<text text-anchor="middle" x="62" y="-140.3" font-family="Times,serif" font-size="14.00" fill="#000000">grad dim: (784, 1)</text>
</g>
<!-- 140362788257168&#45;&gt;140361829940048@ -->
<g id="edge13" class="edge">
<title>140362788257168&#45;&gt;140361829940048@</title>
<path fill="none" stroke="#000000" d="M120.8398,-187.7116C132.0478,-191.6568 143.4135,-195.6575 153.4882,-199.2038"/>
<polygon fill="#000000" stroke="#000000" points="152.4841,-202.5609 163.079,-202.5798 154.8084,-195.958 152.4841,-202.5609"/>
</g>
<!-- 140361829941200 -->
<g id="node15" class="node">
<title>140361829941200</title>
<polygon fill="none" stroke="#000000" points="968.9942,-132.5 968.9942,-201.5 1078.9942,-201.5 1078.9942,-132.5 968.9942,-132.5"/>
<text text-anchor="middle" x="1023.9942" y="-186.3" font-family="Times,serif" font-size="14.00" fill="#000000">losses_sqr</text>
<polyline fill="none" stroke="#000000" points="968.9942,-178.5 1078.9942,-178.5 "/>
<text text-anchor="middle" x="1023.9942" y="-163.3" font-family="Times,serif" font-size="14.00" fill="#000000">data dim: (32, 1)</text>
<polyline fill="none" stroke="#000000" points="968.9942,-155.5 1078.9942,-155.5 "/>
<text text-anchor="middle" x="1023.9942" y="-140.3" font-family="Times,serif" font-size="14.00" fill="#000000">grad dim: (32, 1)</text>
</g>
<!-- 140361829941200&#45;&gt;140361829938368.sum(dim=all) -->
<g id="edge8" class="edge">
<title>140361829941200&#45;&gt;140361829938368.sum(dim=all)</title>
<path fill="none" stroke="#000000" d="M1079.3732,-167C1087.5485,-167 1096.0749,-167 1104.5387,-167"/>
<polygon fill="#000000" stroke="#000000" points="1104.8037,-170.5001 1114.8037,-167 1104.8037,-163.5001 1104.8037,-170.5001"/>
</g>
<!-- 140361829941200**2&#45;&gt;140361829941200 -->
<g id="edge6" class="edge">
<title>140361829941200**2&#45;&gt;140361829941200</title>
<path fill="none" stroke="#000000" d="M933.0658,-167C940.778,-167 949.5317,-167 958.4879,-167"/>
<polygon fill="#000000" stroke="#000000" points="958.641,-170.5001 968.641,-167 958.6409,-163.5001 958.641,-170.5001"/>
</g>
</g>
</svg>
