<?xml version="1.0" encoding="UTF-8" standalone="no"?>
<!DOCTYPE svg PUBLIC "-//W3C//DTD SVG 1.1//EN"
 "http://www.w3.org/Graphics/SVG/1.1/DTD/svg11.dtd">
<!-- Generated by graphviz version 2.40.1 (20161225.0304)
 -->
<!-- Title: %3 Pages: 1 -->
<svg width="1430pt" height="298pt"
 viewBox="0.00 0.00 1429.78 298.00" xmlns="http://www.w3.org/2000/svg" xmlns:xlink="http://www.w3.org/1999/xlink">
<g id="graph0" class="graph" transform="scale(1 1) rotate(0) translate(4 294)">
<title>%3</title>
<polygon fill="#ffffff" stroke="transparent" points="-4,4 -4,-294 1425.7832,-294 1425.7832,4 -4,4"/>
<!-- 139906224002048 -->
<g id="node1" class="node">
<title>139906224002048</title>
<polygon fill="none" stroke="#000000" points="503.9942,-88.5 503.9942,-157.5 620.9942,-157.5 620.9942,-88.5 503.9942,-88.5"/>
<text text-anchor="middle" x="562.4942" y="-142.3" font-family="Times,serif" font-size="14.00" fill="#000000">&#45;Y</text>
<polyline fill="none" stroke="#000000" points="503.9942,-134.5 620.9942,-134.5 "/>
<text text-anchor="middle" x="562.4942" y="-119.3" font-family="Times,serif" font-size="14.00" fill="#000000">data dim: (32, 10)</text>
<polyline fill="none" stroke="#000000" points="503.9942,-111.5 620.9942,-111.5 "/>
<text text-anchor="middle" x="562.4942" y="-96.3" font-family="Times,serif" font-size="14.00" fill="#000000">grad dim: (32, 10)</text>
</g>
<!-- 139906224001760+ -->
<g id="node8" class="node">
<title>139906224001760+</title>
<ellipse fill="none" stroke="#000000" cx="683.9942" cy="-167" rx="27" ry="18"/>
<text text-anchor="middle" x="683.9942" y="-163.3" font-family="Times,serif" font-size="14.00" fill="#000000">+</text>
</g>
<!-- 139906224002048&#45;&gt;139906224001760+ -->
<g id="edge9" class="edge">
<title>139906224002048&#45;&gt;139906224001760+</title>
<path fill="none" stroke="#000000" d="M621.1089,-144.2267C631.2695,-147.9063 641.5099,-151.6147 650.6913,-154.9397"/>
<polygon fill="#000000" stroke="#000000" points="649.5903,-158.2633 660.1845,-158.3775 651.9738,-151.6816 649.5903,-158.2633"/>
</g>
<!-- 139906224002048* -->
<g id="node2" class="node">
<title>139906224002048*</title>
<ellipse fill="none" stroke="#000000" cx="435.4971" cy="-123" rx="27" ry="18"/>
<text text-anchor="middle" x="435.4971" y="-119.3" font-family="Times,serif" font-size="14.00" fill="#000000">*</text>
</g>
<!-- 139906224002048*&#45;&gt;139906224002048 -->
<g id="edge1" class="edge">
<title>139906224002048*&#45;&gt;139906224002048</title>
<path fill="none" stroke="#000000" d="M462.7412,-123C472.0041,-123 482.815,-123 493.8345,-123"/>
<polygon fill="#000000" stroke="#000000" points="493.9748,-126.5001 503.9747,-123 493.9747,-119.5001 493.9748,-126.5001"/>
</g>
<!-- 139906224002672 -->
<g id="node3" class="node">
<title>139906224002672</title>
<polygon fill="none" stroke="#000000" points="1303.7832,-132.5 1303.7832,-201.5 1421.7832,-201.5 1421.7832,-132.5 1303.7832,-132.5"/>
<text text-anchor="middle" x="1362.7832" y="-186.3" font-family="Times,serif" font-size="14.00" fill="#000000">L</text>
<polyline fill="none" stroke="#000000" points="1303.7832,-178.5 1421.7832,-178.5 "/>
<text text-anchor="middle" x="1362.7832" y="-163.3" font-family="Times,serif" font-size="14.00" fill="#000000">data: 121579.0781</text>
<polyline fill="none" stroke="#000000" points="1303.7832,-155.5 1421.7832,-155.5 "/>
<text text-anchor="middle" x="1362.7832" y="-140.3" font-family="Times,serif" font-size="14.00" fill="#000000">grad: 0.0000</text>
</g>
<!-- 139906224002672.sum(dim=all) -->
<g id="node4" class="node">
<title>139906224002672.sum(dim=all)</title>
<ellipse fill="none" stroke="#000000" cx="1205.3887" cy="-167" rx="62.2891" ry="18"/>
<text text-anchor="middle" x="1205.3887" y="-163.3" font-family="Times,serif" font-size="14.00" fill="#000000">.sum(dim=all)</text>
</g>
<!-- 139906224002672.sum(dim=all)&#45;&gt;139906224002672 -->
<g id="edge2" class="edge">
<title>139906224002672.sum(dim=all)&#45;&gt;139906224002672</title>
<path fill="none" stroke="#000000" d="M1268.0474,-167C1276.3971,-167 1284.9983,-167 1293.4532,-167"/>
<polygon fill="#000000" stroke="#000000" points="1293.6671,-170.5001 1303.6671,-167 1293.667,-163.5001 1293.6671,-170.5001"/>
</g>
<!-- 139906730965648 -->
<g id="node5" class="node">
<title>139906730965648</title>
<polygon fill="none" stroke="#000000" points="0,-220.5 0,-289.5 124,-289.5 124,-220.5 0,-220.5"/>
<text text-anchor="middle" x="62" y="-274.3" font-family="Times,serif" font-size="14.00" fill="#000000">X</text>
<polyline fill="none" stroke="#000000" points="0,-266.5 124,-266.5 "/>
<text text-anchor="middle" x="62" y="-251.3" font-family="Times,serif" font-size="14.00" fill="#000000">data dim: (32, 784)</text>
<polyline fill="none" stroke="#000000" points="0,-243.5 124,-243.5 "/>
<text text-anchor="middle" x="62" y="-228.3" font-family="Times,serif" font-size="14.00" fill="#000000">grad dim: (32, 784)</text>
</g>
<!-- 139906224001808@ -->
<g id="node10" class="node">
<title>139906224001808@</title>
<ellipse fill="none" stroke="#000000" cx="187" cy="-211" rx="27" ry="18"/>
<text text-anchor="middle" x="187" y="-207.3" font-family="Times,serif" font-size="14.00" fill="#000000">@</text>
</g>
<!-- 139906730965648&#45;&gt;139906224001808@ -->
<g id="edge14" class="edge">
<title>139906730965648&#45;&gt;139906224001808@</title>
<path fill="none" stroke="#000000" d="M124.1338,-233.1289C134.1949,-229.5874 144.2688,-226.0414 153.3123,-222.8581"/>
<polygon fill="#000000" stroke="#000000" points="154.7588,-226.0595 163.0293,-219.4377 152.4345,-219.4566 154.7588,-226.0595"/>
</g>
<!-- 139906224001232 -->
<g id="node6" class="node">
<title>139906224001232</title>
<polygon fill="none" stroke="#000000" points="250,-88.5 250,-157.5 367,-157.5 367,-88.5 250,-88.5"/>
<text text-anchor="middle" x="308.5" y="-142.3" font-family="Times,serif" font-size="14.00" fill="#000000">Y</text>
<polyline fill="none" stroke="#000000" points="250,-134.5 367,-134.5 "/>
<text text-anchor="middle" x="308.5" y="-119.3" font-family="Times,serif" font-size="14.00" fill="#000000">data dim: (32, 10)</text>
<polyline fill="none" stroke="#000000" points="250,-111.5 367,-111.5 "/>
<text text-anchor="middle" x="308.5" y="-96.3" font-family="Times,serif" font-size="14.00" fill="#000000">grad dim: (32, 10)</text>
</g>
<!-- 139906224001232&#45;&gt;139906224002048* -->
<g id="edge11" class="edge">
<title>139906224001232&#45;&gt;139906224002048*</title>
<path fill="none" stroke="#000000" d="M367.1659,-123C377.7615,-123 388.5376,-123 398.305,-123"/>
<polygon fill="#000000" stroke="#000000" points="398.4514,-126.5001 408.4514,-123 398.4513,-119.5001 398.4514,-126.5001"/>
</g>
<!-- 139906224001760 -->
<g id="node7" class="node">
<title>139906224001760</title>
<polygon fill="none" stroke="#000000" points="746.9942,-132.5 746.9942,-201.5 863.9942,-201.5 863.9942,-132.5 746.9942,-132.5"/>
<text text-anchor="middle" x="805.4942" y="-186.3" font-family="Times,serif" font-size="14.00" fill="#000000">losses</text>
<polyline fill="none" stroke="#000000" points="746.9942,-178.5 863.9942,-178.5 "/>
<text text-anchor="middle" x="805.4942" y="-163.3" font-family="Times,serif" font-size="14.00" fill="#000000">data dim: (32, 10)</text>
<polyline fill="none" stroke="#000000" points="746.9942,-155.5 863.9942,-155.5 "/>
<text text-anchor="middle" x="805.4942" y="-140.3" font-family="Times,serif" font-size="14.00" fill="#000000">grad dim: (32, 10)</text>
</g>
<!-- 139906224001856**2 -->
<g id="node12" class="node">
<title>139906224001856**2</title>
<ellipse fill="none" stroke="#000000" cx="926.9942" cy="-167" rx="27" ry="18"/>
<text text-anchor="middle" x="926.9942" y="-163.3" font-family="Times,serif" font-size="14.00" fill="#000000">**2</text>
</g>
<!-- 139906224001760&#45;&gt;139906224001856**2 -->
<g id="edge8" class="edge">
<title>139906224001760&#45;&gt;139906224001856**2</title>
<path fill="none" stroke="#000000" d="M864.1089,-167C872.8008,-167 881.5511,-167 889.6468,-167"/>
<polygon fill="#000000" stroke="#000000" points="889.8525,-170.5001 899.8525,-167 889.8525,-163.5001 889.8525,-170.5001"/>
</g>
<!-- 139906224001760+&#45;&gt;139906224001760 -->
<g id="edge3" class="edge">
<title>139906224001760+&#45;&gt;139906224001760</title>
<path fill="none" stroke="#000000" d="M711.2612,-167C718.8863,-167 727.5349,-167 736.4258,-167"/>
<polygon fill="#000000" stroke="#000000" points="736.5252,-170.5001 746.5252,-167 736.5251,-163.5001 736.5252,-170.5001"/>
</g>
<!-- 139906224001808 -->
<g id="node9" class="node">
<title>139906224001808</title>
<polygon fill="none" stroke="#000000" points="250,-176.5 250,-245.5 367,-245.5 367,-176.5 250,-176.5"/>
<text text-anchor="middle" x="308.5" y="-230.3" font-family="Times,serif" font-size="14.00" fill="#000000">dot_product</text>
<polyline fill="none" stroke="#000000" points="250,-222.5 367,-222.5 "/>
<text text-anchor="middle" x="308.5" y="-207.3" font-family="Times,serif" font-size="14.00" fill="#000000">data dim: (32, 10)</text>
<polyline fill="none" stroke="#000000" points="250,-199.5 367,-199.5 "/>
<text text-anchor="middle" x="308.5" y="-184.3" font-family="Times,serif" font-size="14.00" fill="#000000">grad dim: (32, 10)</text>
</g>
<!-- 139906224002000ReLU -->
<g id="node16" class="node">
<title>139906224002000ReLU</title>
<ellipse fill="none" stroke="#000000" cx="435.4971" cy="-211" rx="32.4942" ry="18"/>
<text text-anchor="middle" x="435.4971" y="-207.3" font-family="Times,serif" font-size="14.00" fill="#000000">ReLU</text>
</g>
<!-- 139906224001808&#45;&gt;139906224002000ReLU -->
<g id="edge10" class="edge">
<title>139906224001808&#45;&gt;139906224002000ReLU</title>
<path fill="none" stroke="#000000" d="M367.1659,-211C375.7569,-211 384.4666,-211 392.6611,-211"/>
<polygon fill="#000000" stroke="#000000" points="392.7174,-214.5001 402.7174,-211 392.7174,-207.5001 392.7174,-214.5001"/>
</g>
<!-- 139906224001808@&#45;&gt;139906224001808 -->
<g id="edge4" class="edge">
<title>139906224001808@&#45;&gt;139906224001808</title>
<path fill="none" stroke="#000000" d="M214.267,-211C221.8921,-211 230.5407,-211 239.4316,-211"/>
<polygon fill="#000000" stroke="#000000" points="239.531,-214.5001 249.5309,-211 239.5309,-207.5001 239.531,-214.5001"/>
</g>
<!-- 139906224001856 -->
<g id="node11" class="node">
<title>139906224001856</title>
<polygon fill="none" stroke="#000000" points="989.9942,-132.5 989.9942,-201.5 1106.9942,-201.5 1106.9942,-132.5 989.9942,-132.5"/>
<text text-anchor="middle" x="1048.4942" y="-186.3" font-family="Times,serif" font-size="14.00" fill="#000000">losses_sqr</text>
<polyline fill="none" stroke="#000000" points="989.9942,-178.5 1106.9942,-178.5 "/>
<text text-anchor="middle" x="1048.4942" y="-163.3" font-family="Times,serif" font-size="14.00" fill="#000000">data dim: (32, 10)</text>
<polyline fill="none" stroke="#000000" points="989.9942,-155.5 1106.9942,-155.5 "/>
<text text-anchor="middle" x="1048.4942" y="-140.3" font-family="Times,serif" font-size="14.00" fill="#000000">grad dim: (32, 10)</text>
</g>
<!-- 139906224001856&#45;&gt;139906224002672.sum(dim=all) -->
<g id="edge12" class="edge">
<title>139906224001856&#45;&gt;139906224002672.sum(dim=all)</title>
<path fill="none" stroke="#000000" d="M1107.3623,-167C1115.584,-167 1124.1123,-167 1132.5534,-167"/>
<polygon fill="#000000" stroke="#000000" points="1132.7802,-170.5001 1142.7801,-167 1132.7801,-163.5001 1132.7802,-170.5001"/>
</g>
<!-- 139906224001856**2&#45;&gt;139906224001856 -->
<g id="edge5" class="edge">
<title>139906224001856**2&#45;&gt;139906224001856</title>
<path fill="none" stroke="#000000" d="M954.2612,-167C961.8863,-167 970.5349,-167 979.4258,-167"/>
<polygon fill="#000000" stroke="#000000" points="979.5252,-170.5001 989.5252,-167 979.5251,-163.5001 979.5252,-170.5001"/>
</g>
<!-- 139906224001376 -->
<g id="node13" class="node">
<title>139906224001376</title>
<polygon fill="none" stroke="#000000" points="264,-.5 264,-69.5 353,-69.5 353,-.5 264,-.5"/>
<text text-anchor="middle" x="308.5" y="-54.3" font-family="Times,serif" font-size="14.00" fill="#000000">&#45;1</text>
<polyline fill="none" stroke="#000000" points="264,-46.5 353,-46.5 "/>
<text text-anchor="middle" x="308.5" y="-31.3" font-family="Times,serif" font-size="14.00" fill="#000000">data: &#45;1.0000</text>
<polyline fill="none" stroke="#000000" points="264,-23.5 353,-23.5 "/>
<text text-anchor="middle" x="308.5" y="-8.3" font-family="Times,serif" font-size="14.00" fill="#000000">grad: 0.0000</text>
</g>
<!-- 139906224001376&#45;&gt;139906224002048* -->
<g id="edge13" class="edge">
<title>139906224001376&#45;&gt;139906224002048*</title>
<path fill="none" stroke="#000000" d="M353.2744,-66.0255C371.5918,-78.7181 392.192,-92.9926 408.1906,-104.0785"/>
<polygon fill="#000000" stroke="#000000" points="406.3485,-107.0602 416.5615,-109.879 410.3355,-101.3066 406.3485,-107.0602"/>
</g>
<!-- 139906223951728 -->
<g id="node14" class="node">
<title>139906223951728</title>
<polygon fill="none" stroke="#000000" points="0,-132.5 0,-201.5 124,-201.5 124,-132.5 0,-132.5"/>
<text text-anchor="middle" x="62" y="-186.3" font-family="Times,serif" font-size="14.00" fill="#000000">W</text>
<polyline fill="none" stroke="#000000" points="0,-178.5 124,-178.5 "/>
<text text-anchor="middle" x="62" y="-163.3" font-family="Times,serif" font-size="14.00" fill="#000000">data dim: (784, 10)</text>
<polyline fill="none" stroke="#000000" points="0,-155.5 124,-155.5 "/>
<text text-anchor="middle" x="62" y="-140.3" font-family="Times,serif" font-size="14.00" fill="#000000">grad dim: (784, 10)</text>
</g>
<!-- 139906223951728&#45;&gt;139906224001808@ -->
<g id="edge15" class="edge">
<title>139906223951728&#45;&gt;139906224001808@</title>
<path fill="none" stroke="#000000" d="M124.1338,-188.8711C134.1949,-192.4126 144.2688,-195.9586 153.3123,-199.1419"/>
<polygon fill="#000000" stroke="#000000" points="152.4345,-202.5434 163.0293,-202.5623 154.7588,-195.9405 152.4345,-202.5434"/>
</g>
<!-- 139906224002000 -->
<g id="node15" class="node">
<title>139906224002000</title>
<polygon fill="none" stroke="#000000" points="503.9942,-176.5 503.9942,-245.5 620.9942,-245.5 620.9942,-176.5 503.9942,-176.5"/>
<text text-anchor="middle" x="562.4942" y="-230.3" font-family="Times,serif" font-size="14.00" fill="#000000">Z</text>
<polyline fill="none" stroke="#000000" points="503.9942,-222.5 620.9942,-222.5 "/>
<text text-anchor="middle" x="562.4942" y="-207.3" font-family="Times,serif" font-size="14.00" fill="#000000">data dim: (32, 10)</text>
<polyline fill="none" stroke="#000000" points="503.9942,-199.5 620.9942,-199.5 "/>
<text text-anchor="middle" x="562.4942" y="-184.3" font-family="Times,serif" font-size="14.00" fill="#000000">grad dim: (32, 10)</text>
</g>
<!-- 139906224002000&#45;&gt;139906224001760+ -->
<g id="edge7" class="edge">
<title>139906224002000&#45;&gt;139906224001760+</title>
<path fill="none" stroke="#000000" d="M621.1089,-189.7733C631.2695,-186.0937 641.5099,-182.3853 650.6913,-179.0603"/>
<polygon fill="#000000" stroke="#000000" points="651.9738,-182.3184 660.1845,-175.6225 649.5903,-175.7367 651.9738,-182.3184"/>
</g>
<!-- 139906224002000ReLU&#45;&gt;139906224002000 -->
<g id="edge6" class="edge">
<title>139906224002000ReLU&#45;&gt;139906224002000</title>
<path fill="none" stroke="#000000" d="M468.202,-211C476.1048,-211 484.8472,-211 493.728,-211"/>
<polygon fill="#000000" stroke="#000000" points="493.7762,-214.5001 503.7761,-211 493.7761,-207.5001 493.7762,-214.5001"/>
</g>
</g>
</svg>
